<?xml version="1.0" encoding="UTF-8" standalone="no"?>
<!-- Generator: Adobe Illustrator 15.1.0, SVG Export Plug-In . SVG Version: 6.00 Build 0)  -->

<svg
   xmlns:dc="http://purl.org/dc/elements/1.1/"
   xmlns:cc="http://creativecommons.org/ns#"
   xmlns:rdf="http://www.w3.org/1999/02/22-rdf-syntax-ns#"
   xmlns:svg="http://www.w3.org/2000/svg"
   xmlns="http://www.w3.org/2000/svg"
   xmlns:sodipodi="http://sodipodi.sourceforge.net/DTD/sodipodi-0.dtd"
   xmlns:inkscape="http://www.inkscape.org/namespaces/inkscape"
   version="1.1"
   id="Layer_1"
   x="0px"
   y="0px"
   width="174.6875"
   height="183.71907"
   viewBox="0 0 174.6875 183.71907"
   enable-background="new 0 0 1024 1024"
   xml:space="preserve"
   inkscape:version="0.92.5 (2060ec1f9f, 2020-04-08)"
   sodipodi:docname="cmudb-icon.svg"
   inkscape:export-filename="/home/pavlo/Dropbox/The Habitat/NewSQL/cmu-db-group.png"
   inkscape:export-xdpi="58.270309"
   inkscape:export-ydpi="58.270309"><metadata
     id="metadata3066"><rdf:RDF><cc:Work
         rdf:about=""><dc:format>image/svg+xml</dc:format><dc:type
           rdf:resource="http://purl.org/dc/dcmitype/StillImage" /><dc:title /></cc:Work></rdf:RDF></metadata><defs
     id="defs3064" /><sodipodi:namedview
     pagecolor="#ffffff"
     bordercolor="#666666"
     borderopacity="1"
     objecttolerance="10"
     gridtolerance="10"
     guidetolerance="10"
     inkscape:pageopacity="0"
     inkscape:pageshadow="2"
     inkscape:window-width="2460"
     inkscape:window-height="1403"
     id="namedview3062"
     showgrid="false"
     inkscape:zoom="2.6289062"
     inkscape:cx="173.52326"
     inkscape:cy="73.509267"
     inkscape:window-x="0"
     inkscape:window-y="0"
     inkscape:window-maximized="1"
     inkscape:current-layer="g3046"
     fit-margin-top="0"
     fit-margin-left="0"
     fit-margin-right="0"
     fit-margin-bottom="0" /><g
     id="g3044"
     transform="translate(-88.53125,-417.3125)"><g
       id="g3046"><path
         style="fill:#c41230;fill-opacity:1"
         inkscape:connector-curvature="0"
         id="path3048"
         d="m 175.917,483.266 c 0,-8.151 -6.387,-14.847 -14.528,-15.247 -41.244,-2.028 -72.672,-12.545 -72.672,-25.216 v 33.04 c 0,12.406 30.127,22.747 70.096,25.078 4.439,0.259 8.787,-1.325 12.022,-4.375 3.236,-3.049 5.083,-7.3 5.083,-11.747 v -1.533 z" /><path
         style="fill:#c41230;fill-opacity:1"
         inkscape:connector-curvature="0"
         id="path3050"
         d="m 205.924,480.732 c 0.084,4.796 2.296,9.306 6.036,12.309 3.74,3.003 8.621,4.186 13.323,3.237 22.853,-4.61 37.835,-12.332 37.835,-21.082 v -33.04 c 0,9.481 -17.597,17.758 -43.738,22.173 -7.869,1.329 -13.6,8.208 -13.46,16.188 l 0.004,0.215 z" /><path
         style="fill:#c41230;fill-opacity:1"
         inkscape:connector-curvature="0"
         id="path3052"
         d="m 156.297,533.537 c 0.001,-4.309 1.725,-8.438 4.786,-11.469 3.062,-3.032 7.208,-4.714 11.516,-4.674 0.927,0.009 1.857,0.013 2.792,0.013 48.162,0 87.202,-11.446 87.202,-25.57 v 33.039 c 0,14.124 -39.041,25.571 -87.202,25.571 -1.041,0 -2.078,-0.006 -3.11,-0.016 -8.854,-0.092 -15.986,-7.296 -15.983,-16.151 l -0.001,-0.743 z" /><path
         style="fill:#c41230;fill-opacity:1"
         inkscape:connector-curvature="0"
         id="path3054"
         d="m 175.917,584.202 c 0,-8.589 -6.722,-15.682 -15.299,-16.127 -40.863,-2.12 -71.9,-12.585 -71.9,-25.177 v 33.039 c 0,12.385 30.023,22.713 69.89,25.066 4.491,0.266 8.89,-1.335 12.165,-4.419 3.275,-3.084 5.144,-7.385 5.144,-11.883 v -0.499 z" /><path
         style="fill:#c41230;fill-opacity:1"
         inkscape:connector-curvature="0"
         id="path3056"
         d="m 205.921,581.261 c -0.141,-7.995 5.576,-14.859 13.46,-16.19 26.141,-4.416 43.738,-12.692 43.738,-22.174 v 33.04 c 0,8.725 -14.899,16.428 -37.643,21.041 -4.744,0.963 -9.669,-0.235 -13.445,-3.264 -3.776,-3.029 -6.025,-7.582 -6.11,-12.422 l 0,-0.031 z" /><path
         style="fill:none;stroke:#c41230;stroke-width:5.83760023;stroke-miterlimit:10;stroke-opacity:1"
         inkscape:connector-curvature="0"
         id="path3058"
         d="M 136.041,468.549 C 109.5,464.223 91.45,455.709 91.45,445.912 c 0,-14.177 37.796,-25.666 84.42,-25.666 46.626,0 84.423,11.489 84.423,25.666 0,7.693 -10.211,14.608 -27.298,19.023"
         stroke-miterlimit="10" /><path
         style="fill:#c41230;fill-opacity:1"
         inkscape:connector-curvature="0"
         id="path3060"
         d="m 132.151,528.102 c 0.005,5.036 -2.396,9.771 -6.461,12.744 -4.066,2.972 -9.308,3.824 -14.105,2.291 C 97.349,538.585 88.66,532.518 88.66,525.856 v -33.045 c 0,7.871 12.125,14.911 31.195,19.602 7.206,1.772 12.288,8.232 12.296,15.652 v 0.037 z" /></g></g></svg>