<?xml version="1.0" encoding="utf-8"?>
<!-- Generator: Adobe Illustrator 27.5.0, SVG Export Plug-In . SVG Version: 6.00 Build 0)  -->
<svg version="1.1" id="katman_1" xmlns="http://www.w3.org/2000/svg" xmlns:xlink="http://www.w3.org/1999/xlink" x="0px" y="0px"
	 viewBox="0 0 841.89 595.28" style="enable-background:new 0 0 841.89 595.28;" xml:space="preserve">
<style type="text/css">
	.st0{fill-rule:evenodd;clip-rule:evenodd;fill:#0053D6;}
</style>
<path class="st0" d="M86.37,282.11c-1.38-17.44,11.52-35.31,33.1-35.31c7.15,0,14.68,1.82,21,4.82
	c17.16,8.1,29.03,25.56,29.03,45.78c0,18.69-10.14,35.02-25.25,43.78c7.29-7.15,11.61-17.41,10.7-28.78
	c-1.47-18.59-19-33.72-34.9-33.72c-14.79,0-20.58,12.91-19.15,21.68c0.54,3.29,1.96,6.29,4.02,8.74c-2.67-1.43-5.25-3.27-7.63-5.48
	C90.88,297.65,87,290.01,86.37,282.11z M151.42,312.71c1.38,17.44-11.52,35.31-33.1,35.31c-7.15,0-14.68-1.82-21-4.82
	c-17.16-8.1-29.03-25.56-29.03-45.78c0-18.69,10.14-35.02,25.25-43.78c-7.29,7.15-11.61,17.41-10.7,28.78
	c1.47,18.59,19,33.72,34.9,33.72c14.79,0,20.58-12.91,19.15-21.68c-0.54-3.29-1.96-6.29-4.01-8.74c2.67,1.43,5.25,3.27,7.63,5.48
	C146.92,297.17,150.8,304.82,151.42,312.71z M224.81,302.89v-8.06h26.99c0.28,1.42,0.44,3.11,0.44,4.94
	c0,6.05-1.66,13.53-6.98,18.86c-5.18,5.4-11.8,8.28-20.59,8.28c-16.27,0-29.94-13.25-29.94-29.52c0-16.27,13.68-29.52,29.94-29.52
	c9,0,15.4,3.53,20.23,8.14l-5.69,5.69c-3.46-3.24-8.13-5.76-14.54-5.76c-11.88,0-21.16,9.57-21.16,21.46
	c0,11.88,9.29,21.46,21.16,21.46c7.7,0,12.09-3.1,14.9-5.9c2.29-2.29,3.79-5.57,4.38-10.05L224.81,302.89L224.81,302.89z
	 M274.29,326.91c10.51,0,19.07-8.06,19.07-19.01c0-11.02-8.57-19.01-19.07-19.01c-10.51,0-19.07,8.06-19.07,19.01
	S263.78,326.91,274.29,326.91z M274.29,296.39c5.76,0,10.72,4.68,10.72,11.52c0,6.77-4.96,11.52-10.72,11.52
	s-10.73-4.68-10.73-11.52C263.57,301.07,268.53,296.39,274.29,296.39z M334.98,307.91c0,10.94-8.57,19.01-19.08,19.01
	c-10.51,0-19.07-8.06-19.07-19.01s8.57-19.01,19.07-19.01C326.41,288.9,334.98,296.89,334.98,307.91z M326.63,307.91
	c0-6.84-4.96-11.52-10.72-11.52c-5.76,0-10.73,4.68-10.73,11.52c0,6.84,4.97,11.52,10.73,11.52
	C321.66,319.43,326.63,314.67,326.63,307.91z M374.86,324.18v-34.13h-7.92v3.1h-0.29c-1.87-2.23-5.47-4.25-10.01-4.25
	c-9.5,0-18.21,8.42-18.21,19.08c0,10.66,8.71,18.93,18.21,18.93c4.54,0,8.14-2.02,10.01-4.32h0.29v2.74
	c0,7.27-3.89,11.16-10.15,11.16c-5.11,0-8.28-3.67-9.57-6.77l-7.27,3.02c2.09,5.04,7.63,11.23,16.84,11.23
	C366.58,343.98,374.86,338.22,374.86,324.18z M357.37,296.39c5.69,0,10.15,4.9,10.15,11.59c0,6.62-4.39,11.45-10.15,11.45
	s-10.58-4.75-10.58-11.45S351.68,296.39,357.37,296.39z M389,270.08v55.68h-8.35v-55.68H389z M427.72,318.49l-6.48-4.32v0
	c-2.16,3.17-5.11,5.26-9.36,5.26c-4.25,0-7.27-1.94-9.21-5.76l25.41-10.51l-0.86-2.16c-1.58-4.25-6.48-12.1-16.27-12.1
	c-9.79,0-17.92,7.7-17.92,19.01c0,10.66,8.06,19.01,18.86,19.01C420.59,326.91,425.63,321.58,427.72,318.49z M418.29,300.27
	l-16.99,7.06v0c-0.22-7.34,5.69-11.09,9.93-11.09C414.55,296.24,417.36,297.9,418.29,300.27z M452.92,273.43h16.68
	c18.39,0,26.84,10.11,26.84,26.26c0,16.08-8.45,26.12-26.84,26.12h-16.68V273.43z M469.38,319.53c14.5,0,19.53-7.49,19.53-19.84
	c0-12.42-5.01-20.07-19.53-20.07h-9.06v39.9H469.38z M507.17,308.98h29.09c0.07-1.36,0.07-2.48,0.07-3.53
	c0-9.57-6.88-17.66-17.8-17.66c-11.06,0-18.62,7.86-18.62,19.61c0,11.61,7.62,19.31,18.55,19.31c8.74,0,14.8-5.24,16.82-12.21h-7.4
	c-1.5,3.67-4.78,6.06-9.42,6.06C512.7,320.58,507.62,316.54,507.17,308.98z M518.46,293.95c5.83,0,10.24,3.74,10.54,9.8h-21.69
	C508.15,297.32,512.93,293.95,518.46,293.95z M576.57,308.98h-29.09c0.46,7.56,5.53,11.6,11.29,11.6c4.64,0,7.92-2.39,9.42-6.06h7.4
	c-2.02,6.97-8.08,12.21-16.82,12.21c-10.92,0-18.55-7.7-18.55-19.31c0-11.75,7.56-19.61,18.62-19.61c10.92,0,17.8,8.09,17.8,17.66
	C576.64,306.5,576.64,307.62,576.57,308.98z M569.31,303.74c-0.3-6.06-4.71-9.8-10.54-9.8c-5.53,0-10.31,3.37-11.15,9.8H569.31z
	 M587.7,288.69h-6.65v53.59h7.4v-22.3c2.55,4.28,7.17,6.74,13.09,6.74c10.91,0,18.39-8.16,18.39-19.38s-7.49-19.54-18.32-19.54
	c-6.65,0-10.84,3.21-13.16,6.81L587.7,288.69z M600.42,294.23c7.03,0,11.97,5.33,11.97,13.03c0,7.79-4.94,13.03-11.97,13.03
	c-6.96,0-11.97-5.24-11.97-13.03C588.45,299.54,593.46,294.23,600.42,294.23z M677.65,273.43v52.39h-7.4v-39.45l-16.45,31.96h-5.69
	l-16.53-31.96v39.45h-7.4v-52.39h8.67l18.1,35.4l18.02-35.4H677.65z M687.08,271.93c-2.78,0-4.87,1.96-4.87,4.65
	c0,2.69,2.09,4.72,4.87,4.72c2.84,0,4.94-2.03,4.94-4.72C692.01,273.86,689.92,271.93,687.08,271.93z M690.81,288.69h-7.4v37.13h7.4
	V288.69z M730.82,304.41v21.41h-7.33v-20.66c0-7.33-3.07-11-9.06-11c-6.06,0-10.47,4.42-10.47,12.5v19.16h-7.4v-37.13h6.58
	l0.52,6.51c2.39-4.56,7.03-7.4,12.79-7.4C725.36,287.8,730.82,293.27,730.82,304.41z M753.21,287.62
	c-10.92,0-18.32,8.16-18.32,19.38s7.42,19.54,18.23,19.54c6.67,0,10.85-3.21,13.24-6.81l0.75,5.92h6.65v-53.89h-7.4v22.6
	C763.84,290.09,759.2,287.62,753.21,287.62z M754.33,294.07c7.03,0,11.97,5.24,11.97,13.03c0,7.7-4.94,13.01-11.97,13.03
	c-6.96,0-11.97-5.33-11.97-13.03C742.36,299.31,747.37,294.07,754.33,294.07z"/>
</svg>
