<?xml version="1.0" encoding="utf-8"?>
<!-- Generator: Adobe Illustrator 25.0.1, SVG Export Plug-In . SVG Version: 6.00 Build 0)  -->
<svg version="1.0" id="katman_1" xmlns="http://www.w3.org/2000/svg" xmlns:xlink="http://www.w3.org/1999/xlink" x="0px" y="0px"
	 viewBox="0 0 338 204.7" style="enable-background:new 0 0 338 204.7;" xml:space="preserve">
<symbol  id="deepmind-logo" viewBox="-1294.5 -300 2589 600">
	<path d="M-866.6-271.5c-37.5-17.7-82.1-28.5-124.5-28.5c-127.9,0-204.4,105.9-196.2,209.3c3.7,46.8,26.7,92.1,64.7,127.5
		c13.6,12.8,28.8,23.7,45.2,32.5c-12.4-14.8-20.6-32.7-23.8-51.8c-8.5-52,25.8-128.5,113.5-128.5c94.3,0,198.2,89.7,206.9,199.9
		c5.4,67.5-20.2,128.2-63.4,170.6C-754.6,207.6-694.5,110.9-694.5,0C-694.5-119.9-764.9-223.4-866.6-271.5z"/>
	<path d="M-801.7,90.7c-3.7-46.8-26.7-92.1-64.7-127.5c-13.6-12.8-28.8-23.7-45.2-32.5c12.4,14.8,20.6,32.7,23.8,51.8
		c8.5,52-25.8,128.5-113.5,128.5c-94.3,0-198.2-89.7-206.9-199.9c-5.4-67.4,20.2-128.2,63.4-170.6
		c-89.4,51.9-149.5,148.7-149.5,259.6c0,119.9,70.4,223.4,172.1,271.5c37.5,17.7,82.1,28.5,124.5,28.5
		C-870,300-793.5,194.1-801.7,90.7z"/>
	<path d="M-448.7-150h-95.6v300h95.6c105.4,0,153.9-57.4,153.9-149.6C-294.8-92.1-343.3-150-448.7-150z M-450,114h-51.9v-228.4h51.8
		c83.1,0,111.9,43.7,111.9,114.9C-338.1,71.1-366.8,114-450,114z"/>
	<path d="M-168.2-67.7c-63.4,0-106.7,45-106.7,112.3c0,66.4,43.7,110.6,106.3,110.6c50.2,0,84.9-30,96.4-69.9h-42.4
		c-8.6,21-27.4,34.7-54,34.7c-33,0-62.1-23.1-64.7-66.4h166.7c0.4-7.7,0.4-14.1,0.4-20.1C-66.2-21.4-105.7-67.7-168.2-67.7z
		 M-232.5,23.6c4.7-36.9,32.1-56.1,63.8-56.1c33.4,0,58.7,21.4,60.4,56.1H-232.5z"/>
	<path d="M62.8-67.7c-63.4,0-106.7,45-106.7,112.3c0,66.4,43.7,110.6,106.3,110.6c50.1,0,84.8-30,96.4-69.9h-42.4
		c-8.6,21-27.4,34.7-54,34.7c-33,0-62.1-23.1-64.7-66.4h166.7c0.4-7.7,0.4-14.1,0.4-20.1C164.8-21.4,125.3-67.7,62.8-67.7z
		 M-1.5,23.6c4.7-36.9,32.1-56.1,63.9-56.1c33.4,0,58.7,21.4,60.4,56.1H-1.5z"/>
	<path d="M307.9-67.7c-38.1,0-62.1,18.4-75.4,39l-4.3-33.9H190v306.8h42.5V116.6c14.6,24.4,41.1,38.6,75,38.6
		c62.6,0,105.4-46.7,105.4-111S370-67.7,307.9-67.7z M301,118.3c-39.9,0-68.6-30-68.6-74.6c0-44.1,28.7-74.6,68.6-74.6
		c40.3,0,68.6,30.4,68.6,74.6C369.6,88.3,341.3,118.3,301,118.3L301,118.3z"/>
	<polygon points="590.6,52.7 486.9,-150 437.2,-150 437.2,150 479.6,150 479.6,-75.9 574.3,107.1 606.9,107.1 701.2,-75.9 
		701.2,150 743.6,150 743.6,-150 693.9,-150 	"/>
	<rect x="776.6" y="-62.6" width="42.4" height="212.6"/>
	<path d="M797.6-158.6c-15.9,0-27.9,11.1-27.9,26.6s12,27,27.9,27c16.3,0,28.3-11.6,28.3-27S813.9-158.6,797.6-158.6z"/>
	<path d="M966-67.7c-33,0-59.6,16.3-73.3,42.4l-3-37.3H852V150h42.5V40.3c0-46.3,25.3-71.6,60-71.6c34.3,0,51.9,21,51.9,63V150h42
		V27.4C1048.3-36.4,1017-67.7,966-67.7z"/>
	<path d="M1252.1-159.5v129.4c-14.6-24.4-41.1-38.6-75.4-38.6c-62.6,0-105,46.7-105,111s42.4,111.9,104.6,111.9
		c38.1,0,62.1-18.4,75.9-39l4.3,33.9h38.1v-308.6H1252.1z M1183.1,117.3c-39.9,0-68.6-30.4-68.6-74.6c0-44.6,28.7-74.6,68.6-74.6
		c40.3,0,68.6,30,68.6,74.6C1251.6,86.9,1223.4,117.3,1183.1,117.3L1183.1,117.3z"/>
</symbol>
<use xlink:href="#deepmind-logo"  width="2589" height="600" x="-1294.5" y="-300" transform="matrix(0.1001 0 0 0.1001 169 102.3704)" style="overflow:visible;"/>
</svg>
