<svg width="160" height="24" viewBox="0 0 160 24" fill="none" xmlns="http://www.w3.org/2000/svg">
<mask id="mask0_1856_109462" style="mask-type:luminance" maskUnits="userSpaceOnUse" x="0" y="0" width="22" height="24">
<path d="M0 10.8927L5.05935 15.9553V23.9699H0V10.8927ZM21.2504 0.129923V23.1445C21.2504 23.6171 20.8653 23.999 20.3927 23.999C20.1661 23.999 19.9492 23.9117 19.7874 23.7498L0 5.90459V0.854976C0 0.382384 0.38197 0.00044561 0.854562 0.00044561H0.899892C1.12648 0.00044561 1.34656 0.091086 1.50517 0.249696L16.1879 12.9902V0.129923H21.2504Z" fill="white"/>
</mask>
<g mask="url(#mask0_1856_109462)">
<path d="M0.00341797 10.892L5.05938 15.9522V23.9677H0.00341797V10.892ZM21.2527 0.127779V23.1431C21.2527 23.6154 20.8681 23.999 20.3934 23.999C20.1703 23.999 19.9519 23.9088 19.7905 23.7483L0.00341797 5.90247V0.854118C0.00341797 0.381279 0.383208 -0.00180079 0.857946 -0.00180079H0.900645C1.12852 -0.00180079 1.34689 0.088366 1.5083 0.248827L16.192 12.9889V0.127779H21.2527Z" fill="url(#paint0_linear_1856_109462)"/>
</g>
<mask id="mask1_1856_109462" style="mask-type:luminance" maskUnits="userSpaceOnUse" x="24" y="0" width="25" height="24">
<path d="M36.3216 5.20864C32.5053 5.20864 29.4043 8.31287 29.4043 12.126C29.4043 15.9423 32.5053 19.0465 36.3216 19.0465C40.1347 19.0465 43.239 15.9423 43.239 12.126C43.239 8.31287 40.1347 5.20864 36.3216 5.20864ZM48.1947 12.126C48.1947 18.6743 42.8667 23.999 36.3216 23.999C29.7733 23.999 24.4453 18.6743 24.4453 12.126C24.4453 5.5809 29.7733 0.252917 36.3216 0.252917C42.8667 0.252917 48.1947 5.5809 48.1947 12.126Z" fill="white"/>
</mask>
<g mask="url(#mask1_1856_109462)">
<path d="M36.3192 5.21056C32.5021 5.21056 29.4022 8.31386 29.4022 12.1285C29.4022 15.9427 32.5021 19.0461 36.3192 19.0461C40.1314 19.0461 43.2362 15.9427 43.2362 12.1285C43.2362 8.31386 40.1314 5.21056 36.3192 5.21056ZM48.1931 12.1285C48.1931 18.6756 42.8629 24.002 36.3192 24.002C29.7706 24.002 24.4453 18.6751 24.4453 12.1285C24.4453 5.58095 29.7706 0.254682 36.3192 0.254682C42.8629 0.254682 48.1931 5.58095 48.1931 12.1285Z" fill="url(#paint1_linear_1856_109462)"/>
</g>
<mask id="mask2_1856_109462" style="mask-type:luminance" maskUnits="userSpaceOnUse" x="51" y="0" width="24" height="24">
<path d="M74.7568 14.4986L74.3554 15.7416C73.5818 18.124 72.1025 20.173 70.0794 21.6684C68.011 23.193 65.5607 23.999 62.9841 23.999C60.0967 23.999 57.3097 22.9568 55.1345 21.0632C52.982 19.189 51.5674 16.6091 51.1563 13.7995C51.0722 13.2233 51.0269 12.6342 51.0269 12.045C51.0269 11.4786 51.0689 10.9121 51.1466 10.3651C51.5447 7.53602 52.9496 4.94001 55.1086 3.04964C57.2871 1.14309 60.0837 0.0910733 62.9808 0.0910733C65.6254 0.0910733 68.1308 0.935899 70.2283 2.53818C72.2579 4.08543 73.763 6.28007 74.4655 8.72072L74.8151 9.93456H69.5745L69.3285 9.35517C68.2409 6.80123 65.7516 5.15364 62.9808 5.15364C59.7115 5.15364 56.8695 7.47775 56.2221 10.6823C56.1347 11.129 56.0861 11.5854 56.0861 12.045C56.0861 12.5209 56.138 12.9999 56.2351 13.4628C56.9019 16.635 59.7374 18.9397 62.9808 18.9397C65.6092 18.9397 68.0466 17.4054 69.1925 15.0327L69.4514 14.4986H74.7568Z" fill="white"/>
</mask>
<g mask="url(#mask2_1856_109462)">
<path d="M74.7605 14.4983L74.3545 15.7404C73.5829 18.123 72.1058 20.1727 70.0805 21.6681C68.0145 23.1935 65.5628 24 62.9842 24C60.096 24 57.3092 22.9574 55.1367 21.0641C52.9845 19.1875 51.5683 16.6074 51.1572 13.7983C51.076 13.2237 51.0303 12.6338 51.0303 12.046C51.0303 11.4785 51.0709 10.9111 51.147 10.3639C51.548 7.53705 52.949 4.93968 55.1113 3.04989C57.2889 1.14284 60.0858 0.0910885 62.9842 0.0910885C65.6288 0.0910885 68.1312 0.937252 70.2276 2.53619C72.258 4.08437 73.7656 6.28076 74.4661 8.71978L74.8163 9.93241H69.5779L69.3292 9.35477C68.243 6.80206 65.7506 5.15236 62.9842 5.15236C59.7153 5.15236 56.8727 7.47867 56.223 10.6837C56.1367 11.1273 56.0859 11.5856 56.0859 12.046C56.0859 12.5217 56.1367 12.9993 56.2382 13.4638C56.9032 16.6353 59.7407 18.9387 62.9842 18.9387C65.6085 18.9387 68.0501 17.4058 69.1922 15.0338L69.451 14.4983H74.7605Z" fill="url(#paint2_linear_1856_109462)"/>
</g>
<mask id="mask3_1856_109462" style="mask-type:luminance" maskUnits="userSpaceOnUse" x="78" y="0" width="25" height="24">
<path d="M90.3133 5.20864C86.497 5.20864 83.396 8.31287 83.396 12.126C83.396 15.9423 86.497 19.0465 90.3133 19.0465C94.1264 19.0465 97.2307 15.9423 97.2307 12.126C97.2307 8.31287 94.1264 5.20864 90.3133 5.20864ZM102.186 12.126C102.186 18.6743 96.8584 23.999 90.3133 23.999C83.765 23.999 78.437 18.6743 78.437 12.126C78.437 5.5809 83.765 0.252917 90.3133 0.252917C96.8584 0.252917 102.186 5.5809 102.186 12.126Z" fill="white"/>
</mask>
<g mask="url(#mask3_1856_109462)">
<path d="M90.312 5.211C86.4944 5.211 83.3953 8.31433 83.3953 12.1287C83.3953 15.9426 86.4944 19.0465 90.312 19.0465C94.1243 19.0465 97.2287 15.9426 97.2287 12.1287C97.2287 8.31433 94.1243 5.211 90.312 5.211ZM102.184 12.1287C102.184 18.6763 96.8564 24.002 90.312 24.002C83.7624 24.002 78.4346 18.6752 78.4346 12.1287C78.4346 5.58122 83.7624 0.255013 90.312 0.255013C96.8564 0.255013 102.184 5.58122 102.184 12.1287Z" fill="url(#paint3_linear_1856_109462)"/>
</g>
<mask id="mask4_1856_109462" style="mask-type:luminance" maskUnits="userSpaceOnUse" x="105" y="0" width="23" height="24">
<path d="M127.464 12.1292C127.464 12.7183 127.419 13.3075 127.334 13.8804C126.554 19.189 122.291 23.3484 116.966 23.9926L116.908 23.999H105.812V8.76927H110.875V18.9397H116.568C119.388 18.5027 121.666 16.3437 122.256 13.547C122.353 13.0809 122.401 12.6051 122.401 12.1292C122.401 11.6696 122.356 11.2099 122.265 10.7665C121.935 9.1221 121.009 7.65253 119.663 6.6329C118.834 6.00169 117.889 5.57768 116.882 5.37375C116.539 5.30254 116.186 5.26044 115.83 5.24102H105.812V0.168772L116.419 0.20759C119.009 0.405043 121.475 1.4441 123.431 3.17586C125.56 5.05975 126.949 7.64282 127.344 10.4428C127.422 10.993 127.464 11.5628 127.464 12.1292Z" fill="white"/>
</mask>
<g mask="url(#mask4_1856_109462)">
<path d="M127.462 12.1292C127.462 12.7171 127.419 13.3067 127.333 13.8801C126.555 19.1883 122.29 23.3477 116.967 23.994L116.907 24.001H105.812V8.77155H110.871V18.94H116.567C119.386 18.5043 121.664 16.3447 122.252 13.5481C122.35 13.0827 122.398 12.6048 122.398 12.1292C122.398 11.6692 122.355 11.2103 122.263 10.766C121.934 9.12251 121.011 7.65397 119.661 6.63195C118.835 6.00351 117.89 5.57751 116.88 5.37289C116.54 5.30324 116.184 5.26008 115.828 5.24335H105.812V0.170473L116.416 0.209331C119.008 0.406394 121.475 1.4441 123.429 3.17555C125.557 5.06087 126.949 7.64319 127.344 10.4442C127.419 10.9949 127.462 11.5618 127.462 12.1292Z" fill="url(#paint4_linear_1856_109462)"/>
</g>
<path d="M136.122 18.8637H145.822C146.777 18.6189 147.455 17.7471 147.455 16.757C147.455 15.742 146.755 14.8641 145.772 14.6386H136.122V18.8637ZM152.524 16.757C152.524 17.9886 152.208 19.2058 151.614 20.2736C150.336 22.5724 147.91 24 145.284 24C145.006 24 144.734 23.9844 144.462 23.9539C144.184 23.9844 143.912 24 143.64 24H131.063V9.46517H144.067C145.084 9.26138 145.817 8.37574 145.817 7.3335C145.817 6.35344 145.145 5.48553 144.206 5.23344H136.122V5.24125H131.063V0.0910925H143.64C146.227 0.0910925 148.632 1.48316 149.92 3.72368C149.942 3.75866 149.959 3.79306 149.981 3.82915C150.575 4.89639 150.881 6.10801 150.881 7.3335C150.881 8.57009 150.564 9.79114 149.964 10.8661C149.953 10.8845 149.942 10.9039 149.931 10.9217L149.926 10.93V10.9333V10.9366C149.887 10.9955 149.859 11.0544 149.82 11.1127C149.914 11.1848 149.998 11.2593 150.081 11.3348C150.697 11.8767 151.208 12.5125 151.603 13.2255C152.208 14.2994 152.524 15.5204 152.524 16.757Z" fill="url(#paint5_linear_1856_109462)"/>
<defs>
<linearGradient id="paint0_linear_1856_109462" x1="10.6264" y1="-8.08193" x2="10.6264" y2="30.7273" gradientUnits="userSpaceOnUse">
<stop stop-color="#4351E8"/>
<stop offset="1" stop-color="#2A1EA5"/>
</linearGradient>
<linearGradient id="paint1_linear_1856_109462" x1="36.3174" y1="-7.74008" x2="36.3174" y2="30.6591" gradientUnits="userSpaceOnUse">
<stop stop-color="#4351E8"/>
<stop offset="1" stop-color="#2A1EA5"/>
</linearGradient>
<linearGradient id="paint2_linear_1856_109462" x1="62.9215" y1="-7.95809" x2="62.9215" y2="30.7025" gradientUnits="userSpaceOnUse">
<stop stop-color="#4351E8"/>
<stop offset="1" stop-color="#2A1EA5"/>
</linearGradient>
<linearGradient id="paint3_linear_1856_109462" x1="90.3076" y1="-7.73964" x2="90.3076" y2="30.659" gradientUnits="userSpaceOnUse">
<stop stop-color="#4351E8"/>
<stop offset="1" stop-color="#2A1EA5"/>
</linearGradient>
<linearGradient id="paint4_linear_1856_109462" x1="116.636" y1="-7.85231" x2="116.636" y2="30.6815" gradientUnits="userSpaceOnUse">
<stop stop-color="#4351E8"/>
<stop offset="1" stop-color="#2A1EA5"/>
</linearGradient>
<linearGradient id="paint5_linear_1856_109462" x1="141.792" y1="-7.95809" x2="141.792" y2="30.7025" gradientUnits="userSpaceOnUse">
<stop stop-color="#4351E8"/>
<stop offset="1" stop-color="#2A1EA5"/>
</linearGradient>
</defs>
</svg>
