<svg width="124" height="21" viewBox="0 0 124 21" fill="none" xmlns="http://www.w3.org/2000/svg">
<g clip-path="url(#clip0)">
<path d="M119.198 2.35693H121.52V5.58797H123.669V7.71338H121.52V13.4861H123.553V15.5733C123.159 15.6576 122.756 15.6969 122.353 15.6904C120.243 15.6904 119.197 14.5787 119.197 12.3553V2.35693H119.198Z" fill="#F5455C"/>
<path d="M114.812 7.01185V5.58624H117.134V15.4146H114.812V13.9907C114.483 14.9446 113.303 15.6288 111.696 15.6288C111.045 15.641 110.399 15.5172 109.799 15.2655C109.2 15.0137 108.659 14.6395 108.212 14.1668C107.282 13.1766 106.78 11.8587 106.818 10.5004C106.798 9.83049 106.91 9.1632 107.15 8.53715C107.389 7.9111 107.75 7.33873 108.212 6.85316C108.655 6.374 109.195 5.99418 109.795 5.73873C110.395 5.48328 111.043 5.35801 111.696 5.37118C113.302 5.37205 114.483 6.05797 114.812 7.01185V7.01185ZM114.118 12.6484C114.403 12.3705 114.628 12.0363 114.777 11.6672C114.926 11.298 114.997 10.9019 114.986 10.5039C114.993 10.1098 114.921 9.71822 114.774 9.35231C114.627 8.98641 114.409 8.65356 114.132 8.37337C113.855 8.09319 113.524 7.87134 113.16 7.72091C112.795 7.57048 112.404 7.4945 112.01 7.49745C111.624 7.48965 111.241 7.56191 110.885 7.70967C110.528 7.85743 110.206 8.07748 109.939 8.35594C109.668 8.64233 109.458 8.97931 109.318 9.34749C109.179 9.71567 109.113 10.1078 109.126 10.5013C109.113 10.8947 109.179 11.2867 109.318 11.6547C109.458 12.0228 109.668 12.3596 109.939 12.6458C110.206 12.9242 110.528 13.1443 110.885 13.2921C111.241 13.4398 111.624 13.5121 112.01 13.5043C112.401 13.512 112.789 13.44 113.151 13.2929C113.513 13.1457 113.841 12.9265 114.116 12.6484H114.118Z" fill="#F5455C"/>
<path d="M28.8594 15.4138V5.58712H31.1626V7.05002C31.4282 6.51756 31.8459 6.07588 32.3627 5.78089C32.8795 5.4859 33.4722 5.35087 34.0658 5.39288C34.2984 5.38971 34.5308 5.40946 34.7595 5.45185V7.7134C34.4409 7.64913 34.1168 7.61659 33.7918 7.61628C33.4392 7.58938 33.0849 7.63903 32.7533 7.76182C32.4217 7.88461 32.1205 8.07765 31.8705 8.32769C31.6205 8.57774 31.4274 8.87889 31.3046 9.21051C31.1818 9.54213 31.1322 9.89638 31.1591 10.249V15.4138H28.8594V15.4138Z" fill="#F5455C"/>
<path d="M35.3437 10.5004C35.3305 9.80898 35.4614 9.12238 35.7281 8.4843C35.9947 7.84622 36.3912 7.27064 36.8924 6.79416C37.9125 5.82988 39.263 5.2926 40.6668 5.2926C42.0705 5.2926 43.421 5.82988 44.4411 6.79416C44.9423 7.27064 45.3388 7.84622 45.6055 8.4843C45.8721 9.12238 46.003 9.80898 45.9898 10.5004C46.0029 11.1916 45.8719 11.8778 45.6053 12.5156C45.3386 13.1534 44.9422 13.7287 44.4411 14.2049C43.421 15.1692 42.0705 15.7065 40.6668 15.7065C39.263 15.7065 37.9125 15.1692 36.8924 14.2049C36.3911 13.7289 35.9945 13.1536 35.7278 12.5158C35.4612 11.878 35.3303 11.1916 35.3437 10.5004V10.5004ZM42.8117 12.7047C43.0962 12.4141 43.3196 12.0693 43.4685 11.6909C43.6175 11.3124 43.689 10.9079 43.6788 10.5013C43.6909 10.0973 43.6201 9.69511 43.471 9.31946C43.3219 8.94381 43.0975 8.60263 42.8117 8.31689C42.5288 8.03266 42.1925 7.80711 41.8222 7.6532C41.4519 7.4993 41.0548 7.42007 40.6538 7.42007C40.2527 7.42007 39.8556 7.4993 39.4853 7.6532C39.115 7.80711 38.7787 8.03266 38.4958 8.31689C38.2159 8.60617 37.9964 8.94833 37.8502 9.32338C37.704 9.69843 37.634 10.0989 37.6443 10.5013C37.6267 11.3193 37.9327 12.1112 38.4958 12.7047C39.0733 13.2673 39.8476 13.5822 40.6538 13.5822C41.4599 13.5822 42.2342 13.2673 42.8117 12.7047V12.7047Z" fill="#F5455C"/>
<path d="M55.6481 6.26955V8.61089C55.2531 8.22073 54.7846 7.9129 54.2697 7.70524C53.7548 7.49759 53.2037 7.39424 52.6486 7.4012C52.2319 7.38755 51.8168 7.45782 51.4278 7.60783C51.0389 7.75785 50.684 7.98454 50.3844 8.27443C50.0912 8.55981 49.8606 8.90309 49.7073 9.28244C49.554 9.6618 49.4813 10.0689 49.4939 10.4779C49.4813 10.8869 49.554 11.294 49.7073 11.6733C49.8606 12.0527 50.0912 12.396 50.3844 12.6813C50.6832 12.9728 51.0375 13.2011 51.4263 13.3528C51.8152 13.5045 52.2305 13.5763 52.6477 13.5641C53.2038 13.5742 53.7562 13.4718 54.2718 13.2632C54.7874 13.0546 55.2555 12.744 55.6481 12.3501V14.6914C54.753 15.3819 53.6428 15.7342 52.5133 15.686C51.8139 15.7059 51.1176 15.585 50.4659 15.3304C49.8141 15.0758 49.2202 14.6928 48.7195 14.2041C48.2172 13.7246 47.8214 13.1449 47.5579 12.5024C47.2943 11.86 47.1689 11.1693 47.1898 10.4753C47.1685 9.78117 47.2938 9.09037 47.5573 8.44789C47.8209 7.80542 48.2169 7.22569 48.7195 6.74649C49.2202 6.25779 49.8141 5.87476 50.4659 5.62017C51.1176 5.36558 51.8139 5.24463 52.5133 5.26452C53.6429 5.22759 54.7505 5.5827 55.6481 6.26955Z" fill="#F5455C"/>
<path d="M57.3701 15.4164V2.35693H59.6716V9.77982L62.9668 5.5871H65.5995L61.9019 10.2871L65.9082 15.4155H63.1983L59.6716 10.8716V15.4164H57.3701V15.4164Z" fill="#F5455C"/>
<path d="M65.9637 10.5004C65.931 9.81527 66.0396 9.13072 66.2826 8.48927C66.5256 7.84782 66.8978 7.26318 67.3763 6.77164C67.8535 6.29751 68.423 5.92647 69.0495 5.68154C69.676 5.43661 70.3461 5.323 71.0184 5.34777C71.6586 5.32192 72.2968 5.43591 72.8885 5.68182C73.4802 5.92772 74.0112 6.29963 74.4445 6.77164C74.8855 7.23717 75.2304 7.78503 75.4595 8.38392C75.6887 8.9828 75.7975 9.62098 75.7799 10.262C75.7799 10.5542 75.7608 10.8473 75.7409 11.1005H68.2695C68.2823 11.4658 68.3702 11.8246 68.5277 12.1545C68.6852 12.4844 68.9089 12.7784 69.1849 13.0181C69.4609 13.2578 69.7832 13.4381 70.1319 13.5479C70.4806 13.6576 70.8482 13.6944 71.2117 13.656C72.4813 13.7472 73.7369 13.3432 74.7151 12.5287V14.7131C73.6477 15.4106 72.3895 15.7582 71.1155 15.7077C70.4321 15.7346 69.7503 15.6259 69.1092 15.3877C68.4682 15.1496 67.8806 14.7868 67.3806 14.3203C66.9021 13.8288 66.5298 13.2442 66.2868 12.6027C66.0437 11.9612 65.9353 11.2766 65.968 10.5915V10.4944L65.9637 10.5004ZM73.4152 9.4477C73.4153 9.16491 73.3533 8.88556 73.2334 8.62945C73.1135 8.37334 72.9387 8.14674 72.7215 7.96572C72.2529 7.55016 71.6445 7.32713 71.0184 7.34137C70.3459 7.32986 69.6899 7.55035 69.1609 7.96572C68.9199 8.13538 68.7197 8.35654 68.5748 8.61317C68.43 8.8698 68.344 9.15546 68.3232 9.44943L73.4152 9.4477Z" fill="#F5455C"/>
<path d="M77.5254 2.35693H79.8476V5.58797H81.9965V7.71338H79.8494V13.4861H81.882V15.5733C81.4877 15.6576 81.085 15.6969 80.6818 15.6904C78.5721 15.6904 77.5271 14.5787 77.5271 12.3553V2.35693H77.5254Z" fill="#F5455C"/>
<path d="M84.2945 12.8374C84.0174 12.8364 83.7463 12.9176 83.5155 13.0708C83.2846 13.2239 83.1044 13.4421 82.9977 13.6978C82.891 13.9534 82.8625 14.235 82.9159 14.5069C82.9693 14.7787 83.1022 15.0286 83.2977 15.2248C83.4933 15.4211 83.7426 15.5549 84.0143 15.6093C84.2859 15.6637 84.5676 15.6363 84.8236 15.5306C85.0797 15.4248 85.2986 15.2454 85.4526 15.0151C85.6066 14.7848 85.6888 14.514 85.6888 14.237C85.6892 14.0536 85.6534 13.8718 85.5835 13.7022C85.5136 13.5326 85.411 13.3784 85.2815 13.2484C85.152 13.1185 84.9982 13.0153 84.8289 12.9447C84.6595 12.8742 84.4779 12.8378 84.2945 12.8374V12.8374Z" fill="#F5455C"/>
<path d="M94.7989 6.26957V8.6109C94.4039 8.22075 93.9354 7.91292 93.4205 7.70526C92.9056 7.4976 92.3546 7.39425 91.7994 7.40121C91.3824 7.38809 90.9671 7.45902 90.5781 7.60979C90.1891 7.76055 89.8345 7.98807 89.5353 8.27878C89.242 8.56416 89.0114 8.90744 88.8581 9.2868C88.7048 9.66615 88.6321 10.0733 88.6447 10.4822C88.6321 10.8912 88.7048 11.2983 88.8581 11.6777C89.0114 12.057 89.242 12.4003 89.5353 12.6857C89.8339 12.976 90.1878 13.2033 90.576 13.3542C90.9642 13.5051 91.3788 13.5765 91.7951 13.5641C92.3507 13.5747 92.9028 13.4731 93.4182 13.2652C93.9336 13.0574 94.4018 12.7476 94.7946 12.3544V14.6958C93.8995 15.3863 92.7893 15.7386 91.6598 15.6904C90.9604 15.7103 90.2641 15.5894 89.6123 15.3348C88.9606 15.0802 88.3667 14.6972 87.866 14.2084C87.3636 13.729 86.9678 13.1493 86.7043 12.5068C86.4407 11.8644 86.3154 11.1737 86.3363 10.4796C86.315 9.78552 86.4403 9.09472 86.7038 8.45224C86.9674 7.80977 87.3634 7.23004 87.866 6.75084C88.3667 6.2621 88.9606 5.87904 89.6123 5.62445C90.2641 5.36986 90.9604 5.24893 91.6598 5.26887C92.7904 5.22969 93.8996 5.5833 94.7989 6.26957V6.26957Z" fill="#F5455C"/>
<path d="M96.5205 15.4164V2.35693H98.8237V6.95288C99.1016 6.45012 99.5165 6.03655 100.02 5.76024C100.524 5.48394 101.095 5.35624 101.669 5.39199C103.914 5.39199 105.23 6.89391 105.23 9.3315V15.4164H102.927V9.66275C102.927 8.31692 102.211 7.47838 100.973 7.47838C100.678 7.4742 100.385 7.53141 100.114 7.64636C99.8425 7.76131 99.5979 7.93148 99.3958 8.14607C99.1937 8.36065 99.0385 8.61495 98.94 8.89278C98.8415 9.17061 98.8019 9.4659 98.8237 9.75987V15.4164H96.5205V15.4164Z" fill="#F5455C"/>
<path d="M22.221 6.95202C21.5365 5.90808 20.6409 5.01921 19.5917 4.34273C17.2116 2.84914 14.4486 2.07968 11.639 2.12801C10.6573 2.12668 9.67754 2.21375 8.71148 2.38816C8.10892 1.80317 7.43296 1.2989 6.70054 0.887971C5.73441 0.386031 4.67479 0.089608 3.58845 0.0173741C2.50211 -0.0548598 1.41257 0.0986612 0.388487 0.468266C0.297564 0.502012 0.216383 0.557695 0.15216 0.630367C0.0879368 0.70304 0.0426592 0.790451 0.0203504 0.884835C-0.00195846 0.979218 -0.000607628 1.07765 0.0242828 1.17139C0.0491733 1.26512 0.0968326 1.35126 0.163026 1.42214C1.01458 2.31532 2.42805 4.07565 2.08118 5.67036C0.781342 6.93835 0.0335892 8.66753 0 10.4831C0.0267292 12.3097 0.774878 14.0517 2.08118 15.3288C2.42805 16.927 1.01805 18.6847 0.166495 19.5779C0.100091 19.6487 0.0522467 19.7348 0.0272322 19.8286C0.00221773 19.9223 0.000811086 20.0209 0.0231378 20.1153C0.0454646 20.2098 0.0908301 20.2972 0.155186 20.3699C0.219541 20.4426 0.300885 20.4982 0.391956 20.5317C1.41606 20.9017 2.50568 21.0555 3.59217 20.9836C4.67866 20.9117 5.73849 20.6155 6.70488 20.1138C7.43794 19.7027 8.11449 19.1981 8.71756 18.6127C9.68361 18.7871 10.6634 18.8742 11.6451 18.8729C14.4546 18.9217 17.2176 18.1525 19.5978 16.659C20.6454 15.9817 21.5394 15.0922 22.2218 14.048C22.9135 12.9935 23.2819 11.7598 23.2819 10.4987C23.2819 9.23758 22.9135 8.00395 22.2218 6.94942L22.221 6.95202ZM11.5185 16.8125C10.2913 16.8161 9.06898 16.6575 7.88335 16.3408L7.06562 17.1359C6.61178 17.5737 6.10454 17.9525 5.55589 18.2632C4.88922 18.5993 4.16467 18.8053 3.42094 18.8703C3.46083 18.7974 3.49725 18.7237 3.53628 18.6509C3.91994 18.0476 4.17663 17.3724 4.29069 16.6666C4.40475 15.9608 4.37377 15.2392 4.19965 14.5457C3.5682 14.1012 3.04672 13.5182 2.67505 12.8413C2.30338 12.1644 2.09135 11.4114 2.05517 10.64C2.05517 7.23211 6.29211 4.46847 11.5185 4.46847C16.7449 4.46847 20.9853 7.23124 20.9853 10.64C20.9853 14.0489 16.7457 16.8125 11.5185 16.8125V16.8125Z" fill="#F5455C"/>
<path d="M6.98878 9.22053C6.71175 9.2195 6.44064 9.30071 6.2098 9.45387C5.97895 9.60703 5.79875 9.82526 5.69202 10.0809C5.58529 10.3366 5.55683 10.6181 5.61025 10.89C5.66366 11.1618 5.79655 11.4117 5.99208 11.6079C6.1876 11.8042 6.43698 11.938 6.70861 11.9924C6.98025 12.0469 7.26193 12.0195 7.51797 11.9137C7.77402 11.8079 7.99291 11.6285 8.14694 11.3982C8.30096 11.168 8.38317 10.8972 8.38318 10.6201C8.38352 10.4367 8.34772 10.2549 8.27783 10.0853C8.20794 9.9157 8.10533 9.7615 7.97585 9.63154C7.84636 9.50157 7.69255 9.39839 7.52319 9.32786C7.35383 9.25734 7.17224 9.22087 6.98878 9.22053V9.22053Z" fill="#F5455C"/>
<path d="M11.4819 9.22053C11.2049 9.2195 10.9338 9.30071 10.703 9.45387C10.4721 9.60703 10.2919 9.82526 10.1852 10.0809C10.0785 10.3366 10.05 10.6181 10.1034 10.89C10.1568 11.1618 10.2897 11.4117 10.4852 11.6079C10.6808 11.8042 10.9301 11.938 11.2018 11.9924C11.4734 12.0469 11.7551 12.0195 12.0111 11.9137C12.2672 11.8079 12.4861 11.6285 12.6401 11.3982C12.7941 11.168 12.8763 10.8972 12.8763 10.6201C12.8767 10.4367 12.8409 10.2549 12.771 10.0853C12.7011 9.9157 12.5985 9.7615 12.469 9.63154C12.3395 9.50157 12.1857 9.39839 12.0164 9.32786C11.847 9.25734 11.6654 9.22087 11.4819 9.22053V9.22053Z" fill="#F5455C"/>
<path d="M15.97 9.22048C15.6929 9.2191 15.4216 9.30002 15.1906 9.45297C14.9595 9.60592 14.779 9.82403 14.672 10.0796C14.565 10.3353 14.5363 10.6169 14.5895 10.8888C14.6427 11.1608 14.7755 11.4108 14.971 11.6073C15.1664 11.8037 15.4158 11.9377 15.6875 11.9922C15.9591 12.0468 16.2409 12.0195 16.4971 11.9138C16.7532 11.8081 16.9722 11.6287 17.1263 11.3984C17.2804 11.1681 17.3627 10.8972 17.3627 10.6201C17.3634 10.2499 17.2171 9.89452 16.956 9.6321C16.6948 9.36967 16.3402 9.22162 15.97 9.22048V9.22048Z" fill="#F5455C"/>
</g>
<defs>
<clipPath id="clip0">
<rect width="123.669" height="21" fill="white"/>
</clipPath>
</defs>
</svg>
