<svg class="logo" height="50" viewBox="0 0 204 50" width="204" xmlns="http://www.w3.org/2000/svg"><polygon data-name="[" fill="#fff" id="opening-bracket" points="0 50 12.34 50 12.34 44.26 5.74 44.26 5.74 5.74 12.34 5.74 12.34 0 0 0 0 50"></polygon><path d="M26.21,22.91H36.62V17.16H26.21V7.24h-6.3v9.92H14.3v5.75h5.61V36.29a6.47,6.47,0,0,0,6.48,6.47H36.62V37H26.21Z" data-name="t" fill="#fff" id="t"></path><g data-name="i" id="i"><polygon data-name="char" fill="#fff" id="char" points="56.96 17.16 45.65 17.16 45.65 22.91 50.66 22.91 50.66 37.02 45.17 37.02 45.17 42.76 62.63 42.76 62.63 37.02 56.96 37.02 56.96 17.16"></polygon><rect data-name="accent" fill="#fff" height="5.74" id="accent" width="6.56" x="50.4" y="7.24"></rect></g><polygon data-name="l" fill="#fff" id="l" points="80.71 7.24 69.4 7.24 69.4 12.98 74.41 12.98 74.41 37.02 68.98 37.02 68.98 42.76 86.43 42.76 86.43 37.02 80.71 37.02 80.71 7.24"></polygon><path d="M105.38,16.58A13.16,13.16,0,0,0,91.9,30c0,8.24,5.73,13.34,14.2,13.34a15.31,15.31,0,0,0,11.19-4.33l-3.85-4c-2,1.87-4.07,2.62-7.4,2.62-3.89,0-6.72-1.92-7.52-4.89h19.65a12.34,12.34,0,0,0,.47-3.55C118.64,22.32,113.3,16.58,105.38,16.58Zm-.07,5.74c3.61,0,6.19,2.14,6.64,4.79H98.62C99.23,24.33,101.78,22.32,105.31,22.32Z" data-name="e" fill="#fff" id="e"></path><polygon data-name="]" fill="#fff" id="closing-bracket" points="121.24 5.74 127.84 5.74 127.84 44.26 121.24 44.26 121.24 50 133.58 50 133.58 0 121.24 0 121.24 5.74"></polygon><path d="M168.3,12.55A12.71,12.71,0,0,0,164,8.63a12.81,12.81,0,0,0-6.28-1.47H146.48V42.69h11.25a12.9,12.9,0,0,0,6.33-1.46,12.51,12.51,0,0,0,4.29-3.92,16.86,16.86,0,0,0,2.4-5.67,30,30,0,0,0,.74-6.73,28.65,28.65,0,0,0-.77-6.72A17.13,17.13,0,0,0,168.3,12.55ZM157,37h-4.23V12.9h4.1c4.54,0,8.1,4.19,8.1,12C165,33.18,162,37,157,37Z" data-name="d" fill="#4d9fff" id="D"></path><path d="M196.1,24.62a8.38,8.38,0,0,0,5.11-7.93c0-5.39-4.52-9.45-12.4-9.45H177.52V42.76h12.11c8.5,0,12.78-4.11,12.78-9.91C202.41,28.94,200.15,26.05,196.1,24.62ZM189.85,37h-6V27.57h5.8c4.3,0,6.36,1.87,6.36,4.77C196,35.08,194,37,189.85,37Zm-.4-15.2h-5.62V13H189c3.7,0,5.56,1.68,5.56,4.42C194.58,19.94,192.88,21.82,189.45,21.82Z" data-name="b" fill="#4d9fff" id="B"></path></svg>
