<svg xmlns="http://www.w3.org/2000/svg" xml:space="preserve" width="271" height="271" overflow="hidden"><defs><clipPath id="a"><path d="M130 226h271v271H130z"/></clipPath></defs><g fill="#B22222" clip-path="url(#a)" transform="translate(-130 -226)"><path d="M294.296 395.665a3.778 3.778 0 0 0-1.305 2.952c-.098.88.246 1.75.918 2.324a4.25 4.25 0 0 0 2.465.677 5.597 5.597 0 0 0 3.769-1.355 4.552 4.552 0 0 0 1.547-3.775v-2.13h-2.707a7.818 7.818 0 0 0-4.687 1.307Zm-3.045 56.426a3.586 3.586 0 0 0-1.353 2.952 2.615 2.615 0 0 0 .967 2.275c.722.496 1.59.734 2.464.677a5.599 5.599 0 0 0 3.77-1.306 4.841 4.841 0 0 0 1.546-3.823v-2.08h-2.706a7.386 7.386 0 0 0-4.688 1.305Zm-21.698-72.395a10.666 10.666 0 0 0-5.219-1.162h-3.866v21.68h3.045a9.997 9.997 0 0 0 7.732-2.758 11.873 11.873 0 0 0 2.513-8.275 14.825 14.825 0 0 0-1.064-6.097 7.008 7.008 0 0 0-3.141-3.388Zm18.75-34.504a5.407 5.407 0 0 0 3.77-1.355 4.552 4.552 0 0 0 1.546-3.775v-2.13h-2.706a8.065 8.065 0 0 0-4.833 1.21 3.83 3.83 0 0 0-1.353 3.001 2.613 2.613 0 0 0 .967 2.275 4.257 4.257 0 0 0 2.609.774Zm54.85 50.473a3.775 3.775 0 0 0-1.305 2.952 2.714 2.714 0 0 0 .966 2.324c.715.472 1.56.709 2.417.677a5.744 5.744 0 0 0 3.817-1.355 4.842 4.842 0 0 0 1.547-3.775v-2.13h-2.707a7.97 7.97 0 0 0-4.735 1.307Zm-74.18 45.78a3.632 3.632 0 0 0 1.16-2.904 2.856 2.856 0 0 0-1.401-2.758 8.741 8.741 0 0 0-4.446-.823h-3.818v7.453h4.108a7.185 7.185 0 0 0 4.397-.968Zm29.382-166.52a4.494 4.494 0 0 0-4.349-2.661 4.83 4.83 0 0 0-3.383 1.306 6.342 6.342 0 0 0-1.546 4.114h9.665a7.029 7.029 0 0 0-.387-2.759Zm-29.817 173.682a10.17 10.17 0 0 0-3.576-.533h-4.494v8.76h4.833a6.035 6.035 0 0 0 4.446-1.258 4.845 4.845 0 0 0 .724-5.469 4.108 4.108 0 0 0-1.933-1.5Zm69.25-111.303a3.286 3.286 0 0 0 2.9-1.21 6.686 6.686 0 0 0 0-6.776 3.572 3.572 0 0 0-2.9-1.16 3.478 3.478 0 0 0-2.851 1.16 5.138 5.138 0 0 0-.966 3.436 5.374 5.374 0 0 0 .918 3.34 3.525 3.525 0 0 0 2.899 1.21Zm11.647 104.916a4.83 4.83 0 0 0-2.706-.727 4.832 4.832 0 0 0-3.383 1.307 6.44 6.44 0 0 0-1.547 4.114h9.666a7.033 7.033 0 0 0-.532-2.759 4.833 4.833 0 0 0-1.498-1.936Zm21.118-110.917a4.835 4.835 0 0 0-1.595-1.887 4.829 4.829 0 0 0-2.754-.726 4.83 4.83 0 0 0-3.383 1.306 6.343 6.343 0 0 0-1.546 4.114h9.665a7.273 7.273 0 0 0-.387-2.807Zm-37.597 24.438a7.765 7.765 0 0 0 3.866.823 15.962 15.962 0 0 0 4.301-.484 6.07 6.07 0 0 0 2.754-1.307c.632-.502.99-1.273.967-2.08a2.182 2.182 0 0 0-.532-1.501 3.241 3.241 0 0 0-1.691-.774 12.467 12.467 0 0 0-2.899-.241h-3.625a6.846 6.846 0 0 0-2.319.386 4.836 4.836 0 0 0-1.644 1.162 2.808 2.808 0 0 0-.579 1.742 2.563 2.563 0 0 0 1.401 2.274Z"/><path d="M129.99 226v271h270.621V226Zm206.445 41.763 4.833 14.518c0 .435.29.92.387 1.355.124.494.221.995.289 1.5.03.532.03 1.065 0 1.597.066-.783.196-1.56.387-2.323.142-.723.336-1.434.58-2.13l4.832-14.517h7.491L344.409 296.8a13.668 13.668 0 0 1-2.561 4.452 10.047 10.047 0 0 1-3.625 2.662 10.808 10.808 0 0 1-4.494.919c-.691.057-1.386.057-2.078 0h-1.498v-6.243h1.208c.515.05 1.032.05 1.547 0a4.828 4.828 0 0 0 2.513-.629 5.279 5.279 0 0 0 1.788-1.645c.456-.713.829-1.476 1.111-2.275l.387-1.258-10.149-25.503Zm-4.156 56.959a14.483 14.483 0 0 1 5.509-1.017h13.387v3.92l-4.011 1.065c.385.545.679 1.15.869 1.79.155.667.236 1.348.242 2.033a7.797 7.797 0 0 1-2.851 6.436 12.457 12.457 0 0 1-8.022 2.323h-2.271a4.524 4.524 0 0 0-.822.871 2.388 2.388 0 0 0 0 .968c.004.331.144.646.387.87.396.252.84.418 1.304.485.708.059 1.419.059 2.127 0h4.494c2.3-.165 4.586.467 6.476 1.79a6.54 6.54 0 0 1 2.174 5.324 7.938 7.938 0 0 1-3.817 7.064 19.59 19.59 0 0 1-10.777 2.517 14.966 14.966 0 0 1-8.215-1.887 5.954 5.954 0 0 1-2.803-5.275 5.57 5.57 0 0 1 1.45-3.871 8.308 8.308 0 0 1 4.252-2.227 4.243 4.243 0 0 1-1.884-1.5 3.533 3.533 0 0 1-.822-2.226 3.437 3.437 0 0 1 .87-2.42 9.649 9.649 0 0 1 2.416-1.935 6.865 6.865 0 0 1-3.189-2.807 8.424 8.424 0 0 1-1.16-4.5 8.813 8.813 0 0 1 1.208-4.84 7.836 7.836 0 0 1 3.479-2.951Zm17.253 61.458a4.252 4.252 0 0 0-2.948-.92c-1.227.012-2.447.19-3.625.533a26.65 26.65 0 0 0-3.576 1.307l-2.319-4.84a20.555 20.555 0 0 1 4.591-1.403 23.286 23.286 0 0 1 5.219-.58 12.263 12.263 0 0 1 7.925 2.226 8.285 8.285 0 0 1 2.755 6.823v17.131h-4.833l-1.353-3.485a12.235 12.235 0 0 1-2.271 2.227 8.26 8.26 0 0 1-2.61 1.306 13.427 13.427 0 0 1-3.624.388 8.974 8.974 0 0 1-4.06-.871 6.333 6.333 0 0 1-2.851-2.662 9.252 9.252 0 0 1-1.015-4.84 6.684 6.684 0 0 1 2.851-5.952 16.132 16.132 0 0 1 8.361-2.032h4.446v-1.162a3.735 3.735 0 0 0-1.063-3.194Zm-38.371-118.417h5.268l1.015 4.307h.386a9.68 9.68 0 0 1 1.885-2.516 8.56 8.56 0 0 1 2.561-1.743 7.677 7.677 0 0 1 3.19-.677h2.319l-.531 6.581a3.721 3.721 0 0 0-.967 0h-1.063a9.65 9.65 0 0 0-2.658.388c-.829.2-1.604.58-2.271 1.113a4.837 4.837 0 0 0-1.595 1.984 7.378 7.378 0 0 0-.58 3.097v13.018h-6.959Zm-3.382 56.426h5.267l1.063 4.307h.338a9.91 9.91 0 0 1 1.885-2.42 9.656 9.656 0 0 1 2.61-1.742 7.432 7.432 0 0 1 3.141-.629h2.368l-.532 6.582h-2.078a9.189 9.189 0 0 0-2.609.338 6.67 6.67 0 0 0-2.272 1.114 5.503 5.503 0 0 0-1.594 2.032 7.161 7.161 0 0 0-.58 3.049v13.066h-7.007Zm-24.405-50.91a10.352 10.352 0 0 1 4.253-4.5 14.48 14.48 0 0 1 12.468 0 9.668 9.668 0 0 1 3.962 3.969 13.505 13.505 0 0 1 1.402 6.339v3.387h-16.527a6.78 6.78 0 0 0 1.788 4.84 5.985 5.985 0 0 0 4.832 1.693c1.512.023 3.022-.14 4.494-.483a27.567 27.567 0 0 0 4.205-1.5v5.371a16.805 16.805 0 0 1-3.963 1.403 25.23 25.23 0 0 1-4.832.436 15.881 15.881 0 0 1-6.814-1.403 10.733 10.733 0 0 1-4.833-4.356 14.537 14.537 0 0 1-1.691-7.356 16.565 16.565 0 0 1 1.256-7.84Zm-52.916 39.828a33.438 33.438 0 0 1-8.65 13.066 41.433 41.433 0 0 1-15.56 8.953 74.23 74.23 0 0 1-23.632 3.291H168.12v49.167h-17.88V259.439h35.228c16.528 0 28.641 3.372 36.34 10.115a35.11 35.11 0 0 1 11.406 28.116 46.57 46.57 0 0 1-2.755 15.437Zm25.951-53.232 6.282 19.986c.21.62.387 1.25.532 1.888l.773 2.952a27.92 27.92 0 0 1 .483 2.516c0-.677.29-1.5.532-2.516.241-1.017.435-2.033.676-2.952.242-.92.435-1.549.532-1.888l6.33-19.986h7.249l-11.405 33.536h-7.925l-11.26-33.536Zm17.735 84.107v5.855h-20.683v-33.536h7.007v27.68Zm2.658 114.304a9.675 9.675 0 0 1-4.253 3.34 16.796 16.796 0 0 1-6.572 1.16h-12.516V429.25h10.438c3.47-.2 6.936.449 10.1 1.888a6.824 6.824 0 0 1 3.431 6.63 9.669 9.669 0 0 1-.58 3.435 6.826 6.826 0 0 1-1.884 2.565 5.806 5.806 0 0 1-2.755 1.258v.243a8.665 8.665 0 0 1 2.996 1.21 5.604 5.604 0 0 1 2.175 2.419 9.673 9.673 0 0 1 .821 4.21 9.004 9.004 0 0 1-1.401 5.178Zm2.271-59.572a13.63 13.63 0 0 1-6.282 5.71 22.529 22.529 0 0 1-9.665 1.936h-9.665v-33.68h10.487a20.89 20.89 0 0 1 9.181 1.886 13.781 13.781 0 0 1 5.993 5.517 18.024 18.024 0 0 1 2.126 9.05 18.752 18.752 0 0 1-2.175 9.484Zm-.338-51.732a9.064 9.064 0 0 1-1.015-4.548 6.829 6.829 0 0 1 2.851-6.05 16.602 16.602 0 0 1 8.602-2.129h4.446v-1.113a3.68 3.68 0 0 0-1.063-2.952 4.103 4.103 0 0 0-2.899-.968 13.489 13.489 0 0 0-3.673.532 23.382 23.382 0 0 0-3.576 1.355l-2.32-4.839a18.383 18.383 0 0 1 4.591-1.694c1.706-.429 3.46-.64 5.219-.629a12.266 12.266 0 0 1 7.926 2.226 8.38 8.38 0 0 1 2.754 6.872v17.083h-4.832l-1.45-3.775c-.654.84-1.4 1.602-2.223 2.274a7.93 7.93 0 0 1-2.658 1.26 12.83 12.83 0 0 1-3.624.435 9.286 9.286 0 0 1-4.06-.871 6.674 6.674 0 0 1-2.996-2.469Zm26.869 116.144h-4.833l-1.353-3.533a12.592 12.592 0 0 1-2.271 2.274 6.9 6.9 0 0 1-2.61 1.259 13.286 13.286 0 0 1-3.624.435 9.27 9.27 0 0 1-4.059-.871 6.335 6.335 0 0 1-2.852-2.662 9.396 9.396 0 0 1-1.014-4.84 6.728 6.728 0 0 1 2.851-6 16.565 16.565 0 0 1 8.457-2.371h4.446v-1.113a3.684 3.684 0 0 0-1.063-2.952 4.147 4.147 0 0 0-2.9-.92 13.385 13.385 0 0 0-3.673.484 35.93 35.93 0 0 0-3.576 1.355l-2.319-4.84a20.54 20.54 0 0 1 4.591-1.693 23.307 23.307 0 0 1 5.219-.629c2.824-.18 5.624.624 7.925 2.274a8.286 8.286 0 0 1 2.755 6.824Zm3.189-56.863h-4.832l-1.353-3.484a12.099 12.099 0 0 1-2.223 2.226 8.024 8.024 0 0 1-2.658 1.307 13 13 0 0 1-3.625.387 9.27 9.27 0 0 1-4.059-.87 6.2 6.2 0 0 1-2.803-2.662 8.772 8.772 0 0 1-1.063-4.84 6.73 6.73 0 0 1 2.9-6 15.83 15.83 0 0 1 8.312-1.791h4.446v-1.162a3.925 3.925 0 0 0-1.015-2.952 4.301 4.301 0 0 0-2.948-.919 12.902 12.902 0 0 0-3.576.193c-1.224.342-2.42.78-3.576 1.307l-2.32-4.839a20.188 20.188 0 0 1 4.543-1.742 23.417 23.417 0 0 1 5.267-.58 12.119 12.119 0 0 1 7.877 2.225 8.28 8.28 0 0 1 2.706 7.065Zm20.635 53.232a7.588 7.588 0 0 1-3.624 2.76 17.17 17.17 0 0 1-6.089.919 25.446 25.446 0 0 1-4.591-.339 20.66 20.66 0 0 1-3.866-1.162v-5.807a30.578 30.578 0 0 0 4.494 1.549c1.374.358 2.785.552 4.204.58a5.748 5.748 0 0 0 2.948-.58c.538-.354.864-.953.87-1.597a2.324 2.324 0 0 0-.338-1.161 4.817 4.817 0 0 0-1.547-1.162c-.773-.436-1.981-1.016-3.672-1.742a27.239 27.239 0 0 1-3.963-2.032 6.483 6.483 0 0 1-2.271-2.469 7.695 7.695 0 0 1-.773-3.484 6.052 6.052 0 0 1 2.802-5.372 13.721 13.721 0 0 1 7.394-1.79 23.27 23.27 0 0 1 4.543.484c1.532.357 3.023.875 4.446 1.548l-2.272 5.13a57.488 57.488 0 0 0-3.576-1.355 11.827 11.827 0 0 0-3.431-.532c-.797-.05-1.594.1-2.319.435a1.403 1.403 0 0 0-.774 1.258c.004.404.14.795.387 1.114a6.398 6.398 0 0 0 1.595 1.064l3.383 1.5a22.818 22.818 0 0 1 3.769 1.888 7.005 7.005 0 0 1 2.513 2.371 7.22 7.22 0 0 1 .87 3.726 7.515 7.515 0 0 1-1.112 4.21Zm1.788-53.909a12.06 12.06 0 0 1-2.803.822 17.062 17.062 0 0 1-3.624.34 10.926 10.926 0 0 1-4.108-.726 5.799 5.799 0 0 1-2.899-2.614 10.703 10.703 0 0 1-1.015-5.13v-12.582h-3.141v-2.952l3.818-2.322 2.029-5.42h4.446v5.855h7.201v4.84h-7.394v12.389a2.663 2.663 0 0 0 .87 2.177c.625.51 1.417.77 2.223.726a8.693 8.693 0 0 0 2.223 0l2.174-.581Zm26.966 46.021h-16.527a6.537 6.537 0 0 0 1.788 4.84 5.986 5.986 0 0 0 4.59 1.694c1.513.023 3.022-.14 4.495-.484a23.201 23.201 0 0 0 4.204-1.5v5.42a19.313 19.313 0 0 1-3.963 1.354 25.15 25.15 0 0 1-4.832.436 16.062 16.062 0 0 1-6.862-1.403 10.884 10.884 0 0 1-4.833-4.355 14.53 14.53 0 0 1-1.691-7.356 16.559 16.559 0 0 1 1.546-7.501c.926-1.9 2.41-3.47 4.253-4.501a13.174 13.174 0 0 1 6.33-1.5 13.524 13.524 0 0 1 6.138 1.355 9.673 9.673 0 0 1 3.962 3.968 13.518 13.518 0 0 1 1.402 6.34Zm-2.465-107.044a14.771 14.771 0 0 1-1.691-7.26 16.42 16.42 0 0 1 1.546-7.5c.926-1.9 2.41-3.47 4.253-4.5a14.479 14.479 0 0 1 12.468 0 9.67 9.67 0 0 1 3.962 3.967 13.366 13.366 0 0 1 1.402 6.34v3.387H361.13a6.776 6.776 0 0 0 1.788 4.84 6.224 6.224 0 0 0 4.591 1.693 21.266 21.266 0 0 0 4.494-.484 22.287 22.287 0 0 0 4.204-1.548v5.42a16.813 16.813 0 0 1-3.963 1.404 24.912 24.912 0 0 1-4.832.434 15.352 15.352 0 0 1-6.814-1.45 10.595 10.595 0 0 1-4.881-4.743Zm24.791 114.884a7.488 7.488 0 0 1-3.673 2.758 16.7 16.7 0 0 1-6.04.92 25.446 25.446 0 0 1-4.591-.339 20.56 20.56 0 0 1-3.866-1.16v-5.76a30.578 30.578 0 0 0 4.494 1.549c1.374.358 2.785.552 4.204.58a5.4 5.4 0 0 0 2.9-.58c.562-.337.91-.94.918-1.597a1.982 1.982 0 0 0-.387-1.161 4.83 4.83 0 0 0-1.498-1.162c-.773-.436-2.029-1.016-3.672-1.742a24.825 24.825 0 0 1-3.963-2.032 6.476 6.476 0 0 1-2.271-2.469 7.172 7.172 0 0 1-.774-3.58 6.003 6.003 0 0 1 2.755-5.372 13.798 13.798 0 0 1 7.394-1.79 20.31 20.31 0 0 1 9.036 2.031l-2.126 4.84a56.819 56.819 0 0 0-3.576-1.355 11.828 11.828 0 0 0-3.431-.533 4.835 4.835 0 0 0-2.32.436 1.31 1.31 0 0 0-.773 1.259c.004.402.14.794.387 1.112a6.353 6.353 0 0 0 1.595 1.065c.724.387 1.884.87 3.382 1.5a22.867 22.867 0 0 1 3.77 1.887 6.39 6.39 0 0 1 3.334 6.098 7.506 7.506 0 0 1-1.208 4.597Z"/><path d="M184.066 274.393h-15.9v48.828h12.662a60.473 60.473 0 0 0 18.654-2.468 21.698 21.698 0 0 0 11.356-8.033 24.56 24.56 0 0 0 3.866-14.518 21.21 21.21 0 0 0-7.394-17.808 37.17 37.17 0 0 0-23.244-6.001Zm299.375 16.502a20.515 20.515 0 0 1 14.207 4.162 15.156 15.156 0 0 1 4.446 11.517 20.91 20.91 0 0 1-.966 6.291 14.537 14.537 0 0 1-3.286 5.372 15.612 15.612 0 0 1-5.993 3.678 26.732 26.732 0 0 1-9.085 1.355h-4.832v17.905H467.3v-50.28Zm-.677 8.71h-4.832v14.954h3.479a15.539 15.539 0 0 0 5.219-.823 7.104 7.104 0 0 0 3.383-2.468 7.411 7.411 0 0 0 1.208-4.307 6.73 6.73 0 0 0-2.078-5.517 9.366 9.366 0 0 0-6.379-1.838Zm49.437 2.372h3.528l-.822 9.678a4.827 4.827 0 0 0-1.45-.242 10.25 10.25 0 0 0-1.643 0 14.983 14.983 0 0 0-3.914.484c-1.235.356-2.397.93-3.431 1.694a8.612 8.612 0 0 0-2.368 3 11.005 11.005 0 0 0-.87 4.598v19.986h-10.487v-38.714h7.926l1.546 6.484h.532a16.833 16.833 0 0 1 2.851-3.63 13.151 13.151 0 0 1 3.866-2.564c1.502-.605 3.12-.87 4.736-.774Zm45.377 19.889a25.638 25.638 0 0 1-1.304 8.518 17.392 17.392 0 0 1-3.722 6.29 16.243 16.243 0 0 1-5.895 3.872 22.08 22.08 0 0 1-7.781 1.307 20.393 20.393 0 0 1-7.442-1.307 16.676 16.676 0 0 1-5.895-3.871 17.579 17.579 0 0 1-3.818-6.291 24.225 24.225 0 0 1-1.353-8.518 23.201 23.201 0 0 1 2.271-10.84 15.43 15.43 0 0 1 6.427-6.726 20.372 20.372 0 0 1 10.004-2.323 19.31 19.31 0 0 1 9.665 2.323 16.204 16.204 0 0 1 6.524 6.726 22.571 22.571 0 0 1 2.319 10.84Zm-26.53 0a19.963 19.963 0 0 0 .821 6.34 6.767 6.767 0 0 0 7.104 5.226 6.671 6.671 0 0 0 7.056-5.226c.612-2.055.889-4.196.821-6.34a19.79 19.79 0 0 0-.821-6.34 7.317 7.317 0 0 0-2.513-3.822 7.919 7.919 0 0 0-4.591-1.258 6.763 6.763 0 0 0-6.041 2.855 16.131 16.131 0 0 0-1.836 8.565Zm50.741 19.987a21.496 21.496 0 0 1-9.665-2.08 13.838 13.838 0 0 1-6.089-6.438 26.064 26.064 0 0 1-2.078-11.178 24.231 24.231 0 0 1 2.368-11.518 14.895 14.895 0 0 1 6.621-6.533 21.911 21.911 0 0 1 9.665-2.13c2.31-.023 4.615.237 6.862.775a32.22 32.22 0 0 1 4.832 1.84l-3.092 8.129a37.99 37.99 0 0 0-4.833-1.645 14.479 14.479 0 0 0-4.252-.63 7.676 7.676 0 0 0-4.833 1.307 7.31 7.31 0 0 0-2.706 3.872 20.295 20.295 0 0 0-.87 6.436 18.32 18.32 0 0 0 .918 6.34 8.036 8.036 0 0 0 2.803 3.725 7.722 7.722 0 0 0 4.446 1.21 17.8 17.8 0 0 0 6.524-.87 21.367 21.367 0 0 0 4.832-2.469v9.001a17.025 17.025 0 0 1-4.832 2.178 27.986 27.986 0 0 1-6.621.678Zm36.437-39.876a18.73 18.73 0 0 1 9.134 2.08 14.51 14.51 0 0 1 5.944 5.905 19.76 19.76 0 0 1 2.126 9.678v5.082h-24.791a10.367 10.367 0 0 0 2.658 6.968 9.27 9.27 0 0 0 6.911 2.516 29.23 29.23 0 0 0 6.765-.726 36.673 36.673 0 0 0 6.283-2.274v8.13a26.575 26.575 0 0 1-5.993 2.032 36.295 36.295 0 0 1-7.49.678 23.664 23.664 0 0 1-10.245-2.129 15.914 15.914 0 0 1-6.959-6.533 21.612 21.612 0 0 1-2.513-10.985 24.241 24.241 0 0 1 2.271-11.228 15.094 15.094 0 0 1 6.379-6.726 19.311 19.311 0 0 1 9.52-2.468Zm0 7.452a7.05 7.05 0 0 0-5.074 1.984 9.104 9.104 0 0 0-2.319 6.146h14.497a10.308 10.308 0 0 0-.821-4.161 6.769 6.769 0 0 0-2.417-2.904 7.432 7.432 0 0 0-3.817-1.065Zm41.512-7.452a18.779 18.779 0 0 1 9.182 2.08 14.51 14.51 0 0 1 5.944 5.905 19.773 19.773 0 0 1 2.078 9.678v5.082h-24.743a10.122 10.122 0 0 0 2.658 6.968 9.17 9.17 0 0 0 6.91 2.516 28.92 28.92 0 0 0 6.718-.726 33.758 33.758 0 0 0 6.282-2.274v8.13a25.412 25.412 0 0 1-5.944 2.032 37.12 37.12 0 0 1-7.539.678 23.548 23.548 0 0 1-10.051-2.323 15.66 15.66 0 0 1-6.959-6.533 21.617 21.617 0 0 1-2.562-10.985 24.23 24.23 0 0 1 2.32-11.227 15.232 15.232 0 0 1 6.331-6.727 19.308 19.308 0 0 1 9.375-2.274Zm0 7.452a7.052 7.052 0 0 0-4.833 1.984 9.104 9.104 0 0 0-2.319 6.146h14.497a10.308 10.308 0 0 0-.821-4.161 7.113 7.113 0 0 0-2.417-2.904 7.434 7.434 0 0 0-4.011-1.065Zm37.887 32.424a12.702 12.702 0 0 1-10.438-4.84 23.304 23.304 0 0 1-4.06-14.808 23.25 23.25 0 0 1 4.108-14.953 13.04 13.04 0 0 1 10.68-5.082 13.512 13.512 0 0 1 4.832.775 11.019 11.019 0 0 1 3.625 2.032 11.97 11.97 0 0 1 2.561 2.855h.29c0-.726-.29-1.839-.483-3.242a33.311 33.311 0 0 1-.29-4.452v-12.486h10.438v53.523h-8.07l-2.03-4.839h-.435a14.02 14.02 0 0 1-2.465 2.903 10.76 10.76 0 0 1-3.576 2.033c-1.515.47-3.103.668-4.687.581Zm3.672-8.373a6.808 6.808 0 0 0 6.041-2.564c1.377-2.32 2.033-5 1.885-7.695v-1.161a17.777 17.777 0 0 0-1.692-8.566 6.81 6.81 0 0 0-6.427-3 6.183 6.183 0 0 0-5.412 3 15.838 15.838 0 0 0-1.933 8.663 15.01 15.01 0 0 0 1.933 8.468 6.519 6.519 0 0 0 5.605 2.855Zm33.925-45.828a7.195 7.195 0 0 1 4.011 1.065 4.504 4.504 0 0 1 1.691 4.065 4.456 4.456 0 0 1-1.691 4.017 7.867 7.867 0 0 1-8.07 0 4.455 4.455 0 0 1-1.644-4.017 4.503 4.503 0 0 1 1.644-4.065 7.24 7.24 0 0 1 4.059-1.065Zm5.219 15.05v38.715h-10.487v-38.714Zm32.764-.725a14.145 14.145 0 0 1 9.665 3.387 13.657 13.657 0 0 1 3.77 10.744v25.067h-10.245v-22.454a10.61 10.61 0 0 0-1.498-6.243 5.362 5.362 0 0 0-4.833-2.08 6.762 6.762 0 0 0-6.572 3.242 20.5 20.5 0 0 0-1.74 9.436v18.099h-10.486v-38.714h8.022l1.401 4.84h.58a9.907 9.907 0 0 1 3.093-3.243 12.891 12.891 0 0 1 4.059-1.84 18.487 18.487 0 0 1 4.784-.241Zm35.664 56.088a22.068 22.068 0 0 1-12.274-2.807 8.811 8.811 0 0 1-4.253-7.84 8.187 8.187 0 0 1 2.175-5.807 12.55 12.55 0 0 1 6.524-3.339 7.297 7.297 0 0 1-2.803-2.275 5.418 5.418 0 0 1-1.208-3.29 5.278 5.278 0 0 1 1.305-3.679 13.302 13.302 0 0 1 3.672-2.855 10.44 10.44 0 0 1-4.832-4.21 13.033 13.033 0 0 1-1.74-6.823 13.324 13.324 0 0 1 1.836-7.114 11.558 11.558 0 0 1 5.365-4.5 21.282 21.282 0 0 1 8.553-1.55h2.465l2.609.291 1.595.29h13.386v5.71l-5.992 1.55c.511.85.916 1.76 1.208 2.71.296 1.005.443 2.048.435 3.097a11.72 11.72 0 0 1-4.301 9.678 18.586 18.586 0 0 1-11.985 3.436l-3.431-.242a4.405 4.405 0 0 0-1.208 1.307 2.515 2.515 0 0 0-.435 1.403c-.01.51.246.986.677 1.259a4.02 4.02 0 0 0 1.884.774c1.077.113 2.162.113 3.238 0h6.524a14.48 14.48 0 0 1 9.665 2.758 9.685 9.685 0 0 1 3.334 7.937 11.856 11.856 0 0 1-5.654 10.403 29.393 29.393 0 0 1-16.334 3.728Zm.435-6.824a24.78 24.78 0 0 0 6.428-.726 9.662 9.662 0 0 0 4.156-1.985 4.016 4.016 0 0 0 1.449-3.096 3.053 3.053 0 0 0-.869-2.275 4.343 4.343 0 0 0-2.513-1.16 21.56 21.56 0 0 0-4.35-.388h-5.412a9.676 9.676 0 0 0-3.48.629 6.49 6.49 0 0 0-2.416 1.742 4.168 4.168 0 0 0-.87 2.613 3.728 3.728 0 0 0 2.078 3.387 11.343 11.343 0 0 0 5.799 1.26Zm1.692-29.036a5.118 5.118 0 0 0 4.349-1.79 8.577 8.577 0 0 0 1.353-4.84 7.796 7.796 0 0 0-1.45-5.178 5.118 5.118 0 0 0-4.252-1.742 5.314 5.314 0 0 0-4.35 1.742 8.093 8.093 0 0 0-1.401 5.178 7.95 7.95 0 0 0 1.401 4.84 5.218 5.218 0 0 0 4.35 1.645Zm53.158 7.549a11.49 11.49 0 0 1-1.837 6.582 11.067 11.067 0 0 1-5.509 4.113 25.493 25.493 0 0 1-9.037 1.404 40.537 40.537 0 0 1-6.91-.533 29.733 29.733 0 0 1-5.751-1.693v-8.711a35.494 35.494 0 0 0 6.717 2.323c2.047.573 4.158.882 6.283.92a7.917 7.917 0 0 0 4.397-.92 2.76 2.76 0 0 0 1.305-2.371 3.197 3.197 0 0 0-.532-1.743 6.907 6.907 0 0 0-2.271-1.742 54.442 54.442 0 0 0-5.509-2.565 37.247 37.247 0 0 1-5.944-3.049 10.743 10.743 0 0 1-3.431-3.677 11.677 11.677 0 0 1-1.112-5.372 9.007 9.007 0 0 1 4.156-8.033 20.035 20.035 0 0 1 11.067-2.71 31.274 31.274 0 0 1 6.814.726 32.264 32.264 0 0 1 6.669 2.323l-3.142 7.549a53.883 53.883 0 0 0-5.364-2.033 16.84 16.84 0 0 0-5.122-.774 7.333 7.333 0 0 0-3.479.63 1.983 1.983 0 0 0-1.16 1.887c-.001.598.204 1.18.58 1.645a7.196 7.196 0 0 0 2.319 1.597c1.16.58 2.851 1.306 5.123 2.226a44.02 44.02 0 0 1 5.654 2.807 10.742 10.742 0 0 1 3.721 3.63 10.57 10.57 0 0 1 1.305 5.564Zm61.324-7.888a25.613 25.613 0 0 1-1.305 8.518 17.375 17.375 0 0 1-3.721 6.29 16.034 16.034 0 0 1-5.944 3.872 21.58 21.58 0 0 1-7.732 1.307 20.393 20.393 0 0 1-7.442-1.307 16.676 16.676 0 0 1-5.895-3.871 17.565 17.565 0 0 1-3.818-6.291 24.225 24.225 0 0 1-1.353-8.518 23.83 23.83 0 0 1 2.223-10.84 15.814 15.814 0 0 1 6.475-6.726 20.372 20.372 0 0 1 10.004-2.323 19.31 19.31 0 0 1 9.665 2.323 16.498 16.498 0 0 1 6.524 6.726 22.571 22.571 0 0 1 2.319 10.84Zm-26.53 0a19.963 19.963 0 0 0 .821 6.34 6.767 6.767 0 0 0 7.104 5.226 6.671 6.671 0 0 0 7.056-5.226c.612-2.055.889-4.196.821-6.34a19.79 19.79 0 0 0-.821-6.34 7.112 7.112 0 0 0-2.562-3.822 7.674 7.674 0 0 0-4.542-1.258 6.763 6.763 0 0 0-6.041 2.855 15.646 15.646 0 0 0-1.836 8.565Zm56.395-11.276h-9.085v30.585H955.82v-30.584h-5.799v-5.081l5.799-2.807v-2.807a14.534 14.534 0 0 1 1.643-7.646 9.235 9.235 0 0 1 4.832-3.872 21.439 21.439 0 0 1 7.201-1.113c1.863 0 3.722.162 5.557.484a22.79 22.79 0 0 1 4.108 1.162l-2.658 7.694c-.821-.29-1.691-.484-2.609-.726a16.422 16.422 0 0 0-3.238-.29 3.815 3.815 0 0 0-3.238 1.307 5.525 5.525 0 0 0-1.015 3.387v2.42h9.085Zm40.448 22.89c1.121.012 2.24-.1 3.335-.338a35.61 35.61 0 0 0 3.238-.871v7.791a16.27 16.27 0 0 1-4.156 1.258c-1.798.362-3.627.54-5.461.533a16.32 16.32 0 0 1-6.137-1.114 8.894 8.894 0 0 1-4.301-3.92 15.501 15.501 0 0 1-1.547-7.694v-18.534h-4.832v-4.452l5.75-3.485 3.045-8.13h6.669v8.179h10.776v7.888h-10.776v18.534a4.212 4.212 0 0 0 1.256 3.29 4.824 4.824 0 0 0 3.141 1.065Zm24.84-45.828v16.357c0 1.694-.242 2.952-.29 3.678h.531a10.645 10.645 0 0 1 2.948-3.242 11.396 11.396 0 0 1 3.769-1.84 15.84 15.84 0 0 1 4.398-.58 16.993 16.993 0 0 1 7.249 1.452 10.829 10.829 0 0 1 4.832 4.597 17.014 17.014 0 0 1 1.692 8.082v25.019h-10.487v-22.454a10.61 10.61 0 0 0-1.498-6.243 5.36 5.36 0 0 0-4.832-2.08 7.919 7.919 0 0 0-4.833 1.45 8.132 8.132 0 0 0-2.561 4.308 28.119 28.119 0 0 0-.725 6.92v18.099h-10.487v-53.523Zm51.563 14.325a18.728 18.728 0 0 1 9.133 2.08 14.505 14.505 0 0 1 5.944 5.905 19.76 19.76 0 0 1 2.126 9.678v5.082h-24.79a10.362 10.362 0 0 0 2.657 6.968 9.364 9.364 0 0 0 6.959 2.516 28.94 28.94 0 0 0 6.718-.726 36.693 36.693 0 0 0 6.282-2.274v8.13a25.427 25.427 0 0 1-5.944 2.032c-2.484.483-5.01.71-7.539.678-3.53.06-7.03-.668-10.245-2.129a15.925 15.925 0 0 1-6.959-6.533 21.622 21.622 0 0 1-2.513-10.985 24.953 24.953 0 0 1 2.272-11.228 15.618 15.618 0 0 1 6.379-6.726 19.306 19.306 0 0 1 9.52-2.468Zm0 7.452a7.052 7.052 0 0 0-5.075 1.984 9.687 9.687 0 0 0-2.319 6.146h14.497a10.308 10.308 0 0 0-.821-4.161 6.773 6.773 0 0 0-2.416-2.904 7.436 7.436 0 0 0-3.818-1.065Zm-585.267 75.348-17.204 50.28h-11.791l-16.818-50.28h10.729l9.665 29.907c0 .483.386 1.452.773 2.855.387 1.404.725 2.855 1.111 4.404.323 1.26.581 2.536.774 3.823 0-1.016.386-2.275.724-3.823.339-1.55.725-3 1.064-4.404.338-1.403.628-2.322.773-2.855l9.665-29.907Zm6.185 50.28v-50.28h10.632v41.473h20.393v8.807Zm81.38-25.647a28.092 28.092 0 0 1-3.238 14.178 20.396 20.396 0 0 1-9.375 8.565 34.51 34.51 0 0 1-14.836 2.904h-14.207v-50.28h15.754a31.039 31.039 0 0 1 13.724 2.807 20.112 20.112 0 0 1 8.989 8.275 26.652 26.652 0 0 1 3.189 13.55Zm-11.066.483a22.499 22.499 0 0 0-1.595-9.147 11.071 11.071 0 0 0-4.833-5.322 16.11 16.11 0 0 0-7.828-1.743h-5.654v32.762h4.542a15.016 15.016 0 0 0 11.598-4.162 18.022 18.022 0 0 0 3.77-12.388Zm21.456-25.116h15.657c5.21-.302 10.416.66 15.175 2.807a10.313 10.313 0 0 1 5.122 9.678 13.266 13.266 0 0 1-.918 5.13 8.864 8.864 0 0 1-2.61 3.775 8.264 8.264 0 0 1-4.204 1.936v.338a13.99 13.99 0 0 1 4.543 1.79 8.464 8.464 0 0 1 3.237 3.63 13.953 13.953 0 0 1 1.257 6.34 13.513 13.513 0 0 1-2.272 7.84 13.813 13.813 0 0 1-6.33 4.838 25.478 25.478 0 0 1-9.665 1.743h-18.992Zm10.68 19.89h6.186a10.38 10.38 0 0 0 6.378-1.452 5.18 5.18 0 0 0 1.788-4.307 4.502 4.502 0 0 0-2.077-4.162 13.996 13.996 0 0 0-6.718-1.258h-5.557Zm0 8.469v13.114h6.91a9.653 9.653 0 0 0 6.718-1.84 6.63 6.63 0 0 0 1.884-4.838 6.44 6.44 0 0 0-.821-3.243 5.61 5.61 0 0 0-2.755-2.226 14.483 14.483 0 0 0-5.364-.774Zm83.748 21.921h-28.996v-50.28h28.996v8.711h-18.412v11.034h17.01v8.759h-17.01v12.969h18.267Zm31.459-39.197a14.148 14.148 0 0 1 9.907 3.386 13.853 13.853 0 0 1 3.721 10.744v25.067h-10.342v-22.454a11.043 11.043 0 0 0-1.449-6.243 5.363 5.363 0 0 0-4.833-2.08 6.715 6.715 0 0 0-6.572 3.242 20.491 20.491 0 0 0-1.74 9.678v17.857h-10.486v-38.714h7.973l1.45 4.839h.58a10.298 10.298 0 0 1 3.044-3.242 15.034 15.034 0 0 1 4.108-1.84 18.467 18.467 0 0 1 4.639-.24Zm36.582 39.875a12.896 12.896 0 0 1-10.486-4.84 23.593 23.593 0 0 1-4.011-14.808 23.54 23.54 0 0 1 4.059-14.953 13.09 13.09 0 0 1 10.68-4.84 14.99 14.99 0 0 1 4.833.775 12.088 12.088 0 0 1 3.624 2.032 11.93 11.93 0 0 1 2.561 2.856h.338c0-.726-.29-1.84-.483-3.243a33.31 33.31 0 0 1-.29-4.452v-12.728h10.487v53.523h-8.022l-2.03-4.84h-.435a13.812 13.812 0 0 1-2.513 2.856c-1.032.9-2.231 1.59-3.527 2.032a13.526 13.526 0 0 1-4.785.63Zm3.673-8.372a6.713 6.713 0 0 0 6.041-2.565 14.05 14.05 0 0 0 1.884-7.695v-1.16a17.198 17.198 0 0 0-1.739-8.566 6.666 6.666 0 0 0-6.379-2.953 6.088 6.088 0 0 0-5.413 2.953 15.939 15.939 0 0 0-1.981 8.662 15.02 15.02 0 0 0 1.981 8.469 6.375 6.375 0 0 0 5.606 2.855Zm63.548-11.615a25.633 25.633 0 0 1-1.305 8.517 16.99 16.99 0 0 1-3.721 6.292 16.238 16.238 0 0 1-5.896 3.871 22.075 22.075 0 0 1-7.78 1.307 20.393 20.393 0 0 1-7.442-1.307 16.68 16.68 0 0 1-5.896-3.871 17.181 17.181 0 0 1-3.817-6.292 24.242 24.242 0 0 1-1.354-8.517 23.215 23.215 0 0 1 2.272-10.84c1.4-2.85 3.644-5.2 6.427-6.726a20.368 20.368 0 0 1 10.148-2.323 19.305 19.305 0 0 1 9.665 2.323 16.211 16.211 0 0 1 6.283 6.871 22.595 22.595 0 0 1 2.416 10.695Zm-26.531 0a19.964 19.964 0 0 0 .822 6.34 6.766 6.766 0 0 0 7.345 5.226 7.338 7.338 0 0 0 4.543-1.306 7.744 7.744 0 0 0 2.561-3.92c.57-2.063.831-4.2.773-6.34a21.4 21.4 0 0 0-.773-6.339 7.64 7.64 0 0 0-2.561-3.823 7.924 7.924 0 0 0-4.591-1.259 6.763 6.763 0 0 0-6.041 2.856 16.137 16.137 0 0 0-2.078 8.565Zm66.737 19.309-2.947-13.453c0-.823-.435-1.984-.822-3.58-.387-1.598-.725-3.243-1.16-4.84-.435-1.598-.821-3.484-1.16-4.84a83.042 83.042 0 0 1-.773-3.339h-.338c0 .742-.242 1.855-.725 3.339a99.329 99.329 0 0 1-1.16 4.84l-1.16 4.936c-.338 1.597-.628 2.807-.821 3.63l-3.093 13.307h-11.26l-10.921-38.714h10.438l4.446 17.034c.29 1.21.58 2.614.87 4.259.29 1.645.531 3.193.725 4.839.193 1.645.386 2.71.483 3.63h.29c0-.678 0-1.55.29-2.662.29-1.114.338-2.226.531-3.436.194-1.21.387-2.226.532-3.194.145-.968.29-1.596.387-1.936l4.832-18.438h11.55l4.494 18.438c0 .678.387 1.742.628 3.146.242 1.403.532 2.952.725 4.452.179 1.203.292 2.414.339 3.63h.289c0-.774.242-1.936.484-3.485.241-1.548.483-3.146.773-4.839a42.24 42.24 0 0 1 .966-4.307l4.591-17.035h10.294l-11.067 38.715Zm73.696-39.197a13.373 13.373 0 0 1 9.665 3.386 14.533 14.533 0 0 1 3.335 10.744v25.067h-10.535v-22.454a11.05 11.05 0 0 0-1.401-6.243 4.832 4.832 0 0 0-4.35-2.08 6.278 6.278 0 0 0-5.895 2.951 17.104 17.104 0 0 0-1.74 8.517v19.357h-10.197v-22.502a14.513 14.513 0 0 0-.628-4.839 4.833 4.833 0 0 0-5.122-3.678 6.711 6.711 0 0 0-4.833 1.452 7.93 7.93 0 0 0-2.368 4.307 28.412 28.412 0 0 0-.725 6.92v18.292h-10.486v-38.714h8.022l1.401 4.839h.58a10.06 10.06 0 0 1 2.948-3.242 13.234 13.234 0 0 1 3.914-1.84 16.212 16.212 0 0 1 4.301-.58 16.65 16.65 0 0 1 7.152 1.404 9.67 9.67 0 0 1 4.543 4.258h.966a10.206 10.206 0 0 1 4.833-4.307 16.883 16.883 0 0 1 6.62-1.016Zm39.82 0a18.712 18.712 0 0 1 9.134 2.08 14.015 14.015 0 0 1 5.944 5.904 19.76 19.76 0 0 1 2.126 9.678v4.84h-24.984a9.976 9.976 0 0 0 2.706 6.969 9.224 9.224 0 0 0 6.911 2.564 29.007 29.007 0 0 0 6.717-.774 32.986 32.986 0 0 0 6.282-2.275v8.13a25.414 25.414 0 0 1-5.944 2.033 37.119 37.119 0 0 1-7.539.677c-3.53.06-7.029-.668-10.244-2.129a16.1 16.1 0 0 1-6.959-6.485 21.8 21.8 0 0 1-2.513-11.033 24.95 24.95 0 0 1 2.271-11.227 15.624 15.624 0 0 1 6.379-6.726 19.295 19.295 0 0 1 9.713-2.227Zm0 7.5a7.002 7.002 0 0 0-5.074 1.936 9.688 9.688 0 0 0-2.319 6.145h14.497a11.19 11.19 0 0 0-.87-4.162 6.337 6.337 0 0 0-2.416-2.855 7.052 7.052 0 0 0-3.769-1.064Zm47.504-7.5a14.148 14.148 0 0 1 9.907 3.386 13.853 13.853 0 0 1 3.721 10.744v25.067h-10.487v-22.454a11.043 11.043 0 0 0-1.45-6.243 5.36 5.36 0 0 0-4.832-2.08 6.715 6.715 0 0 0-6.572 3.242 20.491 20.491 0 0 0-1.74 9.678v17.857h-10.487v-38.714h7.974l1.45 4.839h.725a10.298 10.298 0 0 1 3.044-3.242 15.034 15.034 0 0 1 4.108-1.84 18.467 18.467 0 0 1 4.639-.24Zm40.593 31.503a14.994 14.994 0 0 0 3.335-.339c1.111 0 2.174-.533 3.238-.871v7.936a21.39 21.39 0 0 1-4.156 1.259 31.4 31.4 0 0 1-5.461.483 16.328 16.328 0 0 1-6.138-1.112 8.661 8.661 0 0 1-4.301-3.92 15.51 15.51 0 0 1-1.546-7.694v-18.632h-4.832v-4.258l5.75-3.485 3.045-8.13h6.669v8.179h10.776v7.888h-10.776V423.2a4.21 4.21 0 0 0 1.256 3.29 4.825 4.825 0 0 0 3.141.872Z"/></g></svg>