<svg width="100%" height="100%" viewBox="-1.07789 0 1411.7179 247.781" fill="none" xmlns="http://www.w3.org/2000/svg"><path d="M189.6 32.9591C193.542 34.9542 198.355 33.3758 200.35 29.4336C202.346 25.4915 200.767 20.6783 196.825 18.6832L189.6 32.9591ZM39.0751 19.0015C35.1329 20.9966 33.5545 25.8097 35.5497 29.7519C37.5448 33.694 42.3579 35.2724 46.3001 33.2773L39.0751 19.0015ZM221.408 94.4607C223.989 98.0463 228.989 98.8602 232.575 96.2786C236.16 93.6969 236.974 88.6974 234.392 85.1118L221.408 94.4607ZM179.21 50.6434L175.826 57.8925V57.8925L179.21 50.6434ZM56.3717 50.6434L59.7555 57.8925L56.3717 50.6434ZM1.49036 85.4543C-1.07789 89.0495 -0.245395 94.0459 3.34978 96.6142C6.94496 99.1824 11.9414 98.3499 14.5096 94.7547L1.49036 85.4543ZM176.302 156.616C176.302 161.034 179.884 164.616 184.302 164.616C188.72 164.616 192.302 161.034 192.302 156.616H176.302ZM51.2799 154.388L59.2786 154.534L59.2799 154.461V154.388H51.2799ZM83.8639 242.816C87.1803 245.735 92.2353 245.413 95.1547 242.097C98.0741 238.78 97.7522 233.725 94.4358 230.806L83.8639 242.816ZM180.801 213.898L180.707 205.898L180.652 205.899L180.597 205.9L180.801 213.898ZM145.796 204.879L141.664 211.73L141.808 211.817L141.956 211.898L145.796 204.879ZM125.11 184.302L132.038 180.301H132.038L125.11 184.302ZM125.154 155.661C125.154 151.243 121.573 147.661 117.154 147.661C112.736 147.661 109.154 151.243 109.154 155.661H125.154ZM197.874 220.47C202.227 219.711 205.14 215.567 204.381 211.214C203.622 206.862 199.478 203.949 195.125 204.708L197.874 220.47ZM117.154 66.5552L117.231 74.5548L117.154 66.5552ZM29.64 113.654L22.7656 109.562L29.64 113.654ZM18.1835 158.207L26.1798 157.964L18.1835 158.207ZM19.9285 205.587C21.49 209.72 26.1063 211.805 30.2395 210.243C34.3727 208.682 36.4575 204.066 34.8961 199.932L19.9285 205.587ZM150.887 155.661L142.891 155.903L150.887 155.661ZM91.0592 187.803L98.3668 184.547V184.547L91.0592 187.803ZM109.517 213.898L115.035 208.105L114.961 208.035L114.885 207.966L109.517 213.898ZM153.989 246.8C158.297 247.781 162.585 245.085 163.566 240.777C164.547 236.469 161.85 232.181 157.542 231.2L153.989 246.8ZM205.624 113.972L212.488 109.863V109.863L205.624 113.972ZM196.825 18.6832C174.504 7.3864 146.147 0 118.189 0V16C143.534 16 169.425 22.7484 189.6 32.9591L196.825 18.6832ZM118.189 0C88.7241 0 61.3258 7.74038 39.0751 19.0015L46.3001 33.2773C66.546 23.0309 91.485 16 118.189 16V0ZM234.392 85.1118C222.055 67.9761 204.066 53.4174 182.594 43.3943L175.826 57.8925C195.088 66.884 210.833 79.7731 221.408 94.4607L234.392 85.1118ZM182.594 43.3943C163.31 34.3925 139.123 29.5958 118.097 29.5958V45.5958C137.046 45.5958 158.886 49.985 175.826 57.8925L182.594 43.3943ZM118.097 29.5958C97.1034 29.5958 72.2987 34.38 52.9878 43.3943L59.7555 57.8925C76.6687 49.9975 99.1135 45.5958 118.097 45.5958V29.5958ZM52.9878 43.3943C32.186 53.1046 13.4688 68.6861 1.49036 85.4543L14.5096 94.7547C24.8076 80.3391 41.3243 66.4962 59.7555 57.8925L52.9878 43.3943ZM192.302 156.616C192.302 114.718 155.274 88.4692 117.154 88.4692V104.469C149.047 104.469 176.302 125.956 176.302 156.616H192.302ZM117.154 88.4692C78.7972 88.4692 43.2799 117.468 43.2799 154.388H59.2799C59.2799 128.297 85.5001 104.469 117.154 104.469V88.4692ZM43.2812 154.242C42.9754 170.952 45.6849 187.526 54.6544 205.12L68.9089 197.853C61.3302 182.987 59.0121 169.095 59.2786 154.534L43.2812 154.242ZM54.6544 205.12C63.4699 222.412 74.1499 234.265 83.8639 242.816L94.4358 230.806C85.9377 223.325 76.6416 213.021 68.9089 197.853L54.6544 205.12ZM180.597 205.9C168.763 206.203 161.001 204.08 149.636 197.861L141.956 211.898C155.413 219.261 165.942 222.28 181.006 221.895L180.597 205.9ZM149.927 198.029C142.101 193.309 136.407 187.865 132.038 180.301L118.183 188.303C124.099 198.546 131.88 205.829 141.664 211.73L149.927 198.029ZM132.038 180.301C127.524 172.487 125.154 164.3 125.154 155.661H109.154C109.154 167.388 112.41 178.309 118.183 188.303L132.038 180.301ZM195.125 204.708C190.818 205.459 185.36 205.843 180.707 205.898L180.896 221.897C186.103 221.836 192.467 221.413 197.874 220.47L195.125 204.708ZM117.078 58.5555C81.8485 58.8943 43.0657 75.4579 22.7656 109.562L36.5143 117.746C53.3416 89.4758 86.2676 74.8525 117.231 74.5548L117.078 58.5555ZM22.7656 109.562C14.0266 124.244 9.65914 141.024 10.1872 158.449L26.1798 157.964C25.7435 143.566 29.3416 129.796 36.5143 117.746L22.7656 109.562ZM10.1872 158.449C10.8597 180.641 14.3357 190.782 19.9285 205.587L34.8961 199.932C29.669 186.096 26.7803 177.779 26.1798 157.964L10.1872 158.449ZM209.398 155.661C209.398 167.953 197.642 177.575 184.938 177.575V193.575C204.08 193.575 225.398 179.011 225.398 155.661H209.398ZM184.938 177.575C177.977 177.575 171.454 175.684 166.797 172.133C162.385 168.769 159.13 163.556 158.884 155.419L142.891 155.903C143.281 168.769 148.778 178.514 157.095 184.856C165.167 191.011 175.352 193.575 184.938 193.575V177.575ZM158.884 155.419C158.481 142.12 151.98 132.583 143.53 126.612C135.346 120.829 125.4 118.383 117.154 118.383V134.383C122.593 134.383 129.195 136.074 134.297 139.679C139.134 143.097 142.658 148.199 142.891 155.903L158.884 155.419ZM117.154 118.383C95.1739 118.383 76.0581 134.867 76.0581 155.661H92.0581C92.0581 145.268 102.36 134.383 117.154 134.383V118.383ZM76.0581 155.661C76.0581 166.719 79.313 181.096 83.7517 191.058L98.3668 184.547C94.7786 176.493 92.0581 164.326 92.0581 155.661H76.0581ZM83.7517 191.058C88.1419 200.912 95.8822 212.349 104.149 219.83L114.885 207.966C108.527 202.213 102.003 192.709 98.3668 184.547L83.7517 191.058ZM103.999 219.69C115.999 231.122 131.494 241.677 153.989 246.8L157.542 231.2C138.457 226.853 125.443 218.021 115.035 208.105L103.999 219.69ZM225.398 155.661C225.398 141.949 222.066 125.864 212.488 109.863L198.759 118.081C206.707 131.358 209.398 144.55 209.398 155.661H225.398ZM212.488 109.863C194.24 79.3785 158.284 58.1593 117.078 58.5555L117.231 74.5548C152.915 74.2117 183.51 92.6048 198.759 118.081L212.488 109.863Z" fill="#F04405"></path><path d="M316.266 116.338H364.631V132.708H316.266V187.398H294.688V59.044H373.56L371.328 75.4138H316.266V116.338Z" fill="#000"></path><path d="M430.968 41C434.937 41 438.161 42.3021 440.641 44.9064C443.245 47.3867 444.548 50.487 444.548 54.2075C444.548 57.9279 443.245 61.0282 440.641 63.5085C438.161 65.9888 434.937 67.2289 430.968 67.2289C426.876 67.2289 423.589 65.9888 421.109 63.5085C418.629 61.0282 417.389 57.9279 417.389 54.2075C417.389 50.363 418.629 47.2007 421.109 44.7204C423.713 42.2401 427 41 430.968 41ZM445.292 172.145H472.079V187.398H395.252V172.145H424.457V104.433H396.182V89.1794H445.292V172.145Z" fill="#000"></path><path d="M495.817 89.1794H513.861L515.349 102.015C519.441 97.0542 524.216 93.2718 529.672 90.6675C535.253 87.9392 541.082 86.5751 547.158 86.5751C556.211 86.5751 563.032 89.1174 567.621 94.2019C572.209 99.2865 574.503 106.479 574.503 115.78V187.398H553.669V126.198C553.669 120.121 553.297 115.47 552.553 112.246C551.933 108.898 550.631 106.479 548.647 104.991C546.662 103.379 543.686 102.573 539.718 102.573C535.253 102.573 530.975 103.937 526.882 106.665C522.914 109.394 519.503 112.804 516.651 116.896V187.398H495.817V89.1794Z" fill="#000"></path><path d="M688.09 94.0159C684.493 95.256 680.401 96.1241 675.812 96.6202C671.348 96.9922 665.953 97.1783 659.628 97.1783C665.581 99.9066 670.046 103.317 673.022 107.409C675.998 111.502 677.486 116.462 677.486 122.291C677.486 128.74 675.874 134.444 672.65 139.405C669.549 144.366 665.085 148.272 659.256 151.124C653.428 153.977 646.545 155.403 638.608 155.403C633.027 155.403 628.563 154.845 625.214 153.729C623.85 154.721 622.796 155.961 622.052 157.449C621.308 158.813 620.936 160.301 620.936 161.913C620.936 166.874 624.966 169.354 633.027 169.354H650.141C657.086 169.354 663.287 170.532 668.743 172.889C674.2 175.245 678.416 178.531 681.393 182.748C684.493 186.84 686.043 191.491 686.043 196.699C686.043 206.496 681.827 214.061 673.394 219.394C664.961 224.851 652.808 227.579 636.934 227.579C625.897 227.579 617.154 226.401 610.705 224.044C604.38 221.812 599.854 218.464 597.125 213.999C594.521 209.659 593.219 204.016 593.219 197.071H611.821C611.821 200.792 612.503 203.706 613.867 205.814C615.355 208.047 617.898 209.659 621.494 210.651C625.09 211.767 630.299 212.325 637.12 212.325C647.041 212.325 654.172 211.085 658.512 208.605C662.853 206.248 665.023 202.714 665.023 198.002C665.023 194.033 663.287 190.933 659.814 188.7C656.466 186.592 651.877 185.538 646.049 185.538H629.121C620.316 185.538 613.619 183.74 609.031 180.144C604.566 176.547 602.334 172.021 602.334 166.564C602.334 163.216 603.264 159.991 605.124 156.891C606.984 153.791 609.651 151.124 613.123 148.892C607.294 145.792 603.016 142.071 600.288 137.731C597.683 133.266 596.381 127.81 596.381 121.361C596.381 114.54 598.117 108.526 601.59 103.317C605.062 97.9843 609.899 93.8919 616.099 91.0396C622.3 88.0632 629.369 86.5751 637.306 86.5751C647.971 86.6991 656.404 85.955 662.605 84.3428C668.929 82.7306 675.626 80.1884 682.695 76.716L688.09 94.0159ZM637.492 101.085C630.919 101.085 625.959 102.945 622.61 106.665C619.262 110.262 617.588 115.16 617.588 121.361C617.588 127.686 619.262 132.708 622.61 136.429C626.083 140.025 631.105 141.823 637.678 141.823C643.879 141.823 648.591 140.025 651.815 136.429C655.04 132.832 656.652 127.686 656.652 120.989C656.652 107.719 650.265 101.085 637.492 101.085Z" fill="#000"></path><path d="M721.315 144.986C721.935 154.535 724.663 161.727 729.499 166.564C734.46 171.277 740.661 173.633 748.102 173.633C752.69 173.633 757.031 172.951 761.123 171.587C765.339 170.098 769.618 167.928 773.958 165.076L782.887 177.725C778.299 181.57 772.904 184.546 766.704 186.654C760.503 188.762 753.992 189.817 747.171 189.817C732.166 189.817 720.508 185.166 712.2 175.865C703.891 166.44 699.736 153.915 699.736 138.289C699.736 128.492 701.534 119.687 705.131 111.874C708.727 103.937 713.936 97.7363 720.757 93.2718C727.577 88.8073 735.514 86.5751 744.567 86.5751C757.589 86.5751 767.882 90.9776 775.447 99.7825C783.135 108.464 786.98 120.431 786.98 135.685C786.98 139.405 786.794 142.505 786.422 144.986H721.315ZM744.753 102.015C738.056 102.015 732.6 104.433 728.383 109.27C724.167 114.106 721.749 121.299 721.129 130.848H766.704C766.456 121.547 764.471 114.416 760.751 109.456C757.031 104.495 751.698 102.015 744.753 102.015Z" fill="#000"></path><path d="M877.685 86.7611C882.77 86.7611 887.731 87.5672 892.567 89.1794L889.033 125.453H874.151V105.363C867.33 105.487 861.378 108.215 856.293 113.548C851.333 118.881 847.364 126.384 844.388 136.057V172.517H864.106V187.398H809.044V172.517H823.553V104.061H809.044V89.1794H839.365L843.086 111.874C846.93 103.441 851.581 97.1783 857.037 93.0858C862.618 88.8693 869.501 86.7611 877.685 86.7611Z" fill="#000"></path><path d="M960.206 86.5751C984.017 86.5751 995.922 103.751 995.922 138.103C995.922 153.605 992.636 166.13 986.063 175.679C979.49 185.104 970.127 189.817 957.974 189.817C947.681 189.817 939.372 186.22 933.047 179.027V225.161L912.213 227.579V89.1794H930.257L931.559 101.829C935.279 96.8682 939.558 93.0858 944.394 90.4815C949.355 87.8772 954.625 86.5751 960.206 86.5751ZM954.439 102.573C950.099 102.573 946.13 103.875 942.534 106.479C938.938 109.084 935.775 112.494 933.047 116.71V162.658C937.884 169.974 944.332 173.633 952.393 173.633C959.586 173.633 964.981 170.78 968.577 165.076C972.173 159.371 973.972 150.442 973.972 138.289C973.972 125.763 972.359 116.71 969.135 111.13C965.911 105.425 961.012 102.573 954.439 102.573Z" fill="#000"></path><path d="M1085.88 86.7611C1090.97 86.7611 1095.93 87.5672 1100.77 89.1794L1097.23 125.453H1082.35V105.363C1075.53 105.487 1069.58 108.215 1064.49 113.548C1059.53 118.881 1055.56 126.384 1052.59 136.057V172.517H1072.3V187.398H1017.24V172.517H1031.75V104.061H1017.24V89.1794H1047.56L1051.28 111.874C1055.13 103.441 1059.78 97.1783 1065.24 93.0858C1070.82 88.8693 1077.7 86.7611 1085.88 86.7611Z" fill="#000"></path><path d="M1159.66 41C1163.63 41 1166.85 42.3021 1169.33 44.9064C1171.94 47.3867 1173.24 50.487 1173.24 54.2075C1173.24 57.9279 1171.94 61.0282 1169.33 63.5085C1166.85 65.9888 1163.63 67.2289 1159.66 67.2289C1155.57 67.2289 1152.28 65.9888 1149.8 63.5085C1147.32 61.0282 1146.08 57.9279 1146.08 54.2075C1146.08 50.363 1147.32 47.2007 1149.8 44.7204C1152.41 42.2401 1155.69 41 1159.66 41ZM1173.98 172.145H1200.77V187.398H1123.95V172.145H1153.15V104.433H1124.88V89.1794H1173.98V172.145Z" fill="#000"></path><path d="M1224.51 89.1794H1242.55L1244.04 102.015C1248.13 97.0542 1252.91 93.2718 1258.37 90.6675C1263.95 87.9392 1269.77 86.5751 1275.85 86.5751C1284.9 86.5751 1291.73 89.1174 1296.31 94.2019C1300.9 99.2865 1303.2 106.479 1303.2 115.78V187.398H1282.36V126.198C1282.36 120.121 1281.99 115.47 1281.25 112.246C1280.63 108.898 1279.32 106.479 1277.34 104.991C1275.36 103.379 1272.38 102.573 1268.41 102.573C1263.95 102.573 1259.67 103.937 1255.58 106.665C1251.61 109.394 1248.2 112.804 1245.34 116.896V187.398H1224.51V89.1794Z" fill="#000"></path><path d="M1410.64 182.19C1406.92 184.546 1402.58 186.406 1397.62 187.77C1392.66 189.135 1387.45 189.817 1382 189.817C1370.84 189.817 1362.22 186.964 1356.14 181.26C1350.06 175.431 1347.02 167.556 1347.02 157.635V104.433H1325.26V89.1794H1347.02V67.2289L1367.86 64.8106V89.1794H1401.16L1398.74 104.433H1367.86V157.449C1367.86 162.782 1369.22 166.75 1371.95 169.354C1374.68 171.835 1379.02 173.075 1384.97 173.075C1391.55 173.075 1397.62 171.525 1403.2 168.424L1410.64 182.19Z" fill="#000"></path></svg>